<?xml version="1.0" encoding="utf-8"?>
<!-- Generator: Adobe Illustrator 25.4.8, SVG Export Plug-In . SVG Version: 6.00 Build 0)  -->
<svg version="1.1" id="Ebene_1" xmlns="http://www.w3.org/2000/svg" xmlns:xlink="http://www.w3.org/1999/xlink" x="0px" y="0px"
	 viewBox="0 0 113.4 113.4" style="enable-background:new 0 0 113.4 113.4;" xml:space="preserve">
<style type="text/css">
	.st0{fill:#FFFFFF;}
</style>
<g id="Ebene_2_00000169522023672020775960000010229418026417903530_">
	<g id="Ebene_1-2">
		<path class="st0" d="M56.7,0C25.4,0,0,25.4,0,56.7s25.4,56.7,56.7,56.7s56.7-25.4,56.7-56.7c0,0,0,0,0,0C113.4,25.4,88,0,56.7,0
			C56.7,0,56.7,0,56.7,0z M40.1,85.3c-4,0-8,0-12,0c-0.6,0-0.7-0.2-0.7-0.7c0-14.1,0-28.1,0-42.2c0-0.6,0.2-0.8,0.8-0.8
			c4,0,8,0,12,0c0.6,0,0.8,0.2,0.8,0.8c0,7,0,14,0,21.1c0,7,0,14,0,21.1C40.9,85.2,40.7,85.3,40.1,85.3z M34.1,35.7
			c-4.4,0-7.9-3.5-7.9-7.9s3.5-7.9,7.9-7.9s7.9,3.5,7.9,7.9C42,32.2,38.4,35.7,34.1,35.7L34.1,35.7z M91,85.2c-4.1,0-8.2,0-12.3,0
			c-0.6,0-0.7-0.2-0.7-0.7c0-6.7,0-13.5,0-20.2c0.1-2.3-0.1-4.6-0.6-6.8c-0.9-4-3.8-5.3-7.5-5c-4.9,0.5-6.2,3.7-6.8,7
			c-0.2,1.6-0.3,3.3-0.3,4.9c0,6.7,0,13.4,0,20.1c0,0.6-0.1,0.8-0.8,0.8c-4,0-8,0-12,0c-0.6,0-0.8-0.1-0.8-0.7c0-14.1,0-28.2,0-42.3
			c0-0.6,0.1-0.7,0.7-0.7c3.9,0,7.8,0,11.6,0c0.6,0,0.8,0.2,0.7,0.8c0,1.7,0,3.4,0,5.1c2.3-3.8,6.3-6.2,10.7-6.7
			c4.2-0.5,8.3-0.1,12,2.2c3.2,2,4.8,5.1,5.7,8.6c0.6,2.6,0.9,5.2,0.9,7.9c0.1,8.4,0,16.7,0,25.1C91.6,85.1,91.5,85.2,91,85.2
			L91,85.2z"/>
	</g>
</g>
</svg>
