<?xml version="1.0" encoding="utf-8"?>
<!-- Generator: Adobe Illustrator 25.4.8, SVG Export Plug-In . SVG Version: 6.00 Build 0)  -->
<svg version="1.1" xmlns="http://www.w3.org/2000/svg" xmlns:xlink="http://www.w3.org/1999/xlink" x="0px" y="0px"
	 viewBox="0 0 1200 857" style="enable-background:new 0 0 1200 857;" xml:space="preserve">
<style type="text/css">
	.st0{fill:#EFEFEF;}
	.st1{fill:#CC9933;}
	.st2{fill:none;stroke:#000000;stroke-width:5;stroke-linecap:round;}
</style>
<g id="hg_00000022562939744958192110000001571739777313615236_">
	<g id="hg">
		<rect class="st0" width="1200" height="857"/>
	</g>
</g>
<g id="wolpertinger_00000102514423160550496930000009854947964295996820_">
	<g id="wolpertinger">
		<path class="st1" d="M781.6,443.5c0.2-1.1-0.5-2.1-1.6-2.3c-0.3-0.1-0.7,0-1,0.1l-34.4,12.8c12.9-9.5,21.6-21.4,26.1-35.5
			c6.4-20.4,2.7-41.4-0.6-55.5c-0.2-0.9-1-1.5-1.9-1.5l0,0c-0.9,0-1.7,0.6-1.9,1.5c-0.1,0.5-10.2,40.6-44.9,64.7
			c15.5-18,39.5-57.5,19.2-115c-0.3-0.8-1.1-1.4-2-1.3c-0.9,0.1-1.6,0.8-1.8,1.7c-0.1,0.9-13.1,91-79.4,117.5
			c0.2-0.2,0.5-0.5,0.7-0.7c2.5-2.4,5.1-4.8,8.4-7.7c22.5-20.3,27.1-52.3,29.8-83.2c0.8-8.1,1.8-16.9,2.8-25.4s2.1-17.3,2.8-25.5
			c0.4-4.5,0.4-10-3.8-12.9c-3.3-2.3-7.7-1.4-10.5,0.4s-4.8,4.6-6.5,7c-4.6,6.6-9.5,13.8-14.3,20.9s-9.7,14.2-14.2,20.8
			c-4.6,6.9-8.9,14-12.7,21.4c-1.1,2-2.2,4.1-3.4,6.2c-1.6-11.6-8.2-22.6-18.3-28.9c-1-0.5-2.2-0.2-2.7,0.8
			c-0.2,0.4-0.3,0.9-0.2,1.4c6.7,24.4,5.6,50.3-3.2,74c-1.8,5.3-3.2,10.7-4.2,16.2c-0.3,1.4-0.6,2.7-0.8,4c-2.3-0.8-4.6-1.2-7-1.3
			h-0.2c-2.4,0.1-4.7,0.6-7,1.3c-0.3-1.3-0.6-2.7-0.8-4c-1-5.5-2.4-10.9-4.2-16.2c-2.9-7.9-5-16-6.2-24.3c-2.5-16.6-1.5-33.5,3-49.7
			c0.2-1.1-0.5-2.1-1.5-2.4c-0.5-0.1-0.9,0-1.4,0.2c-10.1,6.2-16.6,17.2-18.3,28.8c-1.1-2-2.2-4.1-3.3-6.1
			c-3.8-7.4-8.1-14.5-12.7-21.4c-4.6-6.6-9.4-13.7-14.3-20.8s-9.7-14.2-14.3-20.9c-1.7-2.4-3.6-5.2-6.5-7s-7.2-2.7-10.5-0.4
			c-4.1,2.8-4.2,8.4-3.8,12.9c0.8,8.2,1.8,17,2.9,25.5s2.1,17.3,2.8,25.4c2.7,31,7.3,62.9,29.9,83.2c3.2,2.9,5.9,5.4,8.4,7.7
			l0.7,0.7c-66.5-26.4-79.4-116.6-79.5-117.5c-0.2-1.1-1.3-1.8-2.4-1.6c-0.6,0.1-1.2,0.6-1.4,1.2c-20.2,57.5,3.7,97,19.2,115
			c-34.6-24.2-44.8-64.4-44.9-64.8c-0.2-0.9-1-1.5-1.9-1.5l0,0c-0.9,0-1.7,0.6-1.9,1.5c-3.9,16.5-14.5,61.5,25.6,91.1L421,441.3
			c-0.7-0.3-1.4-0.1-2,0.4c-0.5,0.5-0.8,1.2-0.6,1.9c0.1,0.4,8.1,34.5,43.2,45.9l-30.5,0.3c-0.7,0-1.3,0.4-1.7,1
			c-0.4,0.6-0.4,1.3-0.1,1.9c4.1,7.1,9.6,13.3,16.3,18.1c8.3,6.1,18.1,9.6,28.4,10.1l-23.5,7.5c-1,0.4-1.6,1.5-1.2,2.6
			c0.1,0.2,0.2,0.4,0.4,0.6c0.2,0.2,18.5,20,43.3,18.5l-16.7,8.7c-0.6,0.3-0.9,0.9-1,1.5c-0.1,0.6,0.2,1.3,0.7,1.7
			c0.2,0.2,15.4,13.1,34,13.1c8.1,0,16.9-2.5,25.3-9.5c0.1,0.2,0.2,0.5,0.3,0.7c5.8,14.3,13.8,19.8,26.1,24.2c2.6,1,5.3,1.7,8,1.9
			c1.2,2,2.3,3.8,3.5,5.6c0.9,1.4,1.8,2.8,2.7,4.3c0.3,0.6,1,1,1.7,1h0.3c0.8-0.2,1.4-0.8,1.6-1.5c0.3-1.6,0.6-3,1-4.5
			c0.4-2,0.9-4,1.3-6.1c0.6-0.2,1.2-0.4,1.8-0.6c2-0.8,3.8-1.9,5.5-3.1c0.2-0.1,0.5-0.2,0.7-0.4c0.3-0.3,0.6-0.6,0.9-0.9l0,0
			c5.5-4.6,13.4-4.6,18.9-0.1l0.2,0.2c0.3,0.2,0.6,0.5,0.8,0.8c0.2,0.2,0.4,0.3,0.7,0.4c1.7,1.3,3.5,2.3,5.5,3.1
			c0.6,0.2,1.2,0.4,1.8,0.6c0.4,2.1,0.8,4.1,1.3,6.1c0.3,1.5,0.6,2.9,1,4.5c0.2,0.8,0.8,1.4,1.6,1.5c0.1,0,0.2,0,0.3,0
			c0.7,0,1.3-0.4,1.7-1c1-1.6,1.8-3,2.7-4.3c1.2-1.8,2.3-3.6,3.5-5.6c2-0.2,4-0.6,5.9-1.2l0,0h0.1c0.5-0.2,1.1-0.3,1.6-0.5
			c12.5-4.4,20.5-9.8,26.5-24.3c0.1-0.2,0.2-0.5,0.2-0.7c8.4,7,17.2,9.5,25.3,9.5c18.6,0,33.8-12.9,34-13.1c0.5-0.4,0.7-1.1,0.7-1.7
			c-0.1-0.6-0.4-1.2-1-1.5L707,550c24.8,1.6,43.1-18.2,43.3-18.5c0.4-0.5,0.6-1.2,0.4-1.8c-0.2-0.6-0.7-1.2-1.3-1.4l-23.5-7.5
			c30.4-1.6,44.5-27.9,44.7-28.2c0.3-0.6,0.3-1.3-0.1-1.9c-0.3-0.6-1-1-1.7-1l-30.5-0.3C773.5,478,781.5,443.9,781.6,443.5z
			 M593.3,573.5c-1.3,6.1-5.6,11.1-11.5,13.3c-5.4,2.1-11.4,2.3-17,0.6l0,0c-0.6-0.2-1.1-0.4-1.7-0.6c-1.6-0.6-3.1-1.3-4.5-2.3
			c-6.8-4.5-10.5-11.5-11-20.8c-0.2-8.1,1.5-16.1,5.1-23.5c2.3-4.9,5.9-7.5,10.4-7.5c1.6,0,3.3,0.3,4.8,0.9c4.5,1.5,7.2,3.2,8.8,7.4
			c2.6,6.8,6,10.7,10.8,15.8C592.3,561.8,594.5,568.3,593.3,573.5L593.3,573.5z M580.2,536.2c0.1-0.1,0.1-0.2,0.2-0.3
			c4.8-8.4,9.8-14,19-14h1.3c9.1,0,14.2,5.7,19,14.1c0.1,0.1,0.1,0.1,0.1,0.2h-0.2h-0.2c-3.2,0.7-5.3,2.9-7.1,4.8
			c-0.9,1.1-1.9,2-3.1,2.9c-2.7,1.9-6,3-9.3,3H600c-3.3,0-6.6-1.1-9.3-3c-1.1-0.8-2.2-1.8-3.1-2.9c-1.8-1.9-3.8-4.1-7.1-4.8h-0.2
			L580.2,536.2z M600,578.6c-1.5,0-3,0.2-4.5,0.6c0.7-1.5,1.3-3.2,1.7-4.8c1.4-6.5-1.2-14.4-6.6-20.1c-4.5-4.7-7.4-8.1-9.7-13.8
			c1.5,0.8,2.8,1.9,3.9,3.2c1.1,1.3,2.4,2.5,3.8,3.5c3.3,2.3,7.2,3.6,11.2,3.7h0.6c4-0.1,7.9-1.4,11.2-3.7c1.4-1,2.6-2.2,3.8-3.5
			c1.1-1.3,2.4-2.4,3.9-3.2c-2.3,5.7-5.2,9.1-9.7,13.8c-5.4,5.7-8,13.6-6.6,20.1c0.4,1.7,0.9,3.3,1.7,4.8
			C603,578.8,601.5,578.6,600,578.6z M641.2,584.6c-1.5,1-3.1,1.8-4.8,2.4l-1.2,0.4c-5.6,1.8-11.7,1.6-17.2-0.5
			c-5.8-2.2-10.1-7.2-11.5-13.3c-1.2-5.2,1.1-11.8,5.6-16.6c4.9-5.1,8.2-9,10.8-15.8c1.6-4.2,4.3-5.9,8.8-7.4
			c1.5-0.6,3.2-0.9,4.8-0.9c4.5,0,8.1,2.5,10.4,7.5c3.5,7.3,5.3,15.3,5.1,23.5C651.8,573,648.1,580,641.2,584.6z M713.8,489.1h-1
			c-1.1,0-2,0.9-2,1.9l0,0c0,1.1,0.9,2,1.9,2l52.6,0.5c-5.6,8.5-24.8,31.9-61.3,20.2c-1-0.3-2.1,0.3-2.5,1.3
			c-0.1,0.2-0.1,0.4-0.1,0.6c0,0.9,0.6,1.6,1.4,1.9l42.2,13.5c-4.4,4.1-9.4,7.5-14.8,10.1c-13.8,6.7-27.3,6.7-40.3,0l-0.2-0.1l0,0
			c-0.9-0.7-2.1-0.6-2.8,0.3s-0.6,2.1,0.3,2.8c0.2,0.2,0.5,0.3,0.7,0.4l0.3,0.1l30.9,16.1c-5,3.6-10.5,6.4-16.3,8.3
			c-13.9,4.4-26.2,1.8-36.8-7.7c0.3-1.5,0.6-2.9,0.9-4.3c0.4-2.9,1.1-5.7,2.1-8.4c1.7-3.2,3.7-6.3,5.9-9.2
			c4.1-5.6,8.4-11.4,8.7-18.8c0.5-10.2-7.2-20.8-13.3-29.3l-2.1-2.9c-1.7-2.5-1.7-5.1-1.6-8.1c0.1-3.9,0.2-8.4-3.6-13.2
			c-0.8-0.7-2.1-0.7-2.8,0.2c-0.5,0.6-0.7,1.5-0.3,2.2c2.9,3.7,2.8,7.1,2.8,10.8c-0.1,3.4-0.1,6.9,2.4,10.5l2.1,2.9
			c5.5,7.6,13,18,12.6,26.8c-0.3,6.2-4,11.3-8,16.7c-2.4,3.1-4.5,6.4-6.3,9.9c-1.1,3-1.9,6.1-2.4,9.2c-0.4,2.9-1.1,5.7-2.1,8.4
			c-2.4,6-5.1,10.3-8.8,13.7c2.5-4.5,3.8-9.4,4-14.5c0.2-8.7-1.6-17.4-5.4-25.3c-3.9-8.4-11.4-11.6-20-8.6c-2.8,0.8-5.3,2.2-7.5,4.1
			c0-0.1-0.1-0.2-0.1-0.2c-4.7-8.3-10.7-16-22.4-16h-1.4c-11.7,0-17.6,7.7-22.3,16c-0.1,0.1-0.1,0.2-0.2,0.3
			c-2.2-1.9-4.7-3.3-7.5-4.1c-8.6-3-16.1,0.2-20,8.6c-3.8,7.9-5.7,16.5-5.5,25.2c0.2,5,1.5,9.9,3.9,14.4c-3.6-3.4-6.2-7.7-8.6-13.6
			c-1-2.7-1.7-5.5-2.1-8.4c-0.5-3.2-1.3-6.3-2.4-9.3c-1.8-3.5-3.9-6.8-6.3-9.8c-4-5.4-7.7-10.5-8-16.7c-0.5-8.8,7.1-19.2,12.6-26.8
			c0.7-1,1.5-2,2.1-2.9c2.5-3.5,2.4-7,2.4-10.5c-0.1-3.6-0.1-7,2.8-10.8c0.5-1,0.1-2.2-0.9-2.7c-0.7-0.4-1.6-0.2-2.2,0.3
			c-3.7,4.8-3.7,9.3-3.6,13.2c0.1,3,0.1,5.6-1.6,8.1c-0.7,0.9-1.4,1.9-2.1,2.9c-6.2,8.5-13.8,19.1-13.3,29.3
			c0.4,7.4,4.6,13.2,8.7,18.8c2.2,2.8,4.2,5.9,5.9,9.1c1,2.7,1.7,5.6,2.2,8.5c0.3,1.4,0.5,2.8,0.9,4.3c-21.7,19.5-45.7,4.9-53.2-0.6
			l30.9-16.1l0.3-0.1c0.9-0.7,1-2,0.3-2.8c-0.5-0.6-1.3-0.9-2.1-0.7l0,0l-0.2,0.1c-12.9,6.7-26.4,6.7-40.1,0.1
			c-5.4-2.7-10.5-6.1-14.9-10.2l42.2-13.5c0.8-0.3,1.3-1,1.4-1.9c0-0.2,0-0.4-0.1-0.6c-0.3-1-1.4-1.6-2.5-1.3
			c-36.5,11.7-55.8-11.8-61.4-20.2l52.6-0.5c1.1,0,1.9-0.9,1.9-2l0,0c0-1.1-0.9-1.9-2-1.9c-45.5,0.5-60.2-31.8-63.9-42.9l59.5,22.1
			c1,0.4,2.1-0.2,2.5-1.2c0.1-0.2,0.1-0.4,0.1-0.7c0-0.8-0.5-1.5-1.3-1.8c-56.6-21.1-58.1-62-51.9-93.6c5.4,15.1,21.5,50.3,58,67.9
			c0.9,0.4,2,0.1,2.5-0.7c0.5-0.9,0.3-2-0.5-2.6c-0.1-0.1-14.4-11-25-31.4c-9.2-17.6-17.4-45.9-6.5-82.9c5,23.5,24.7,93.8,85,114.5
			c0,0.3,0,0.5,0,0.8c-0.3,2-1,3.9-2.1,5.6l-0.3,0.6c-1.2,1.9-2.1,4-2.7,6.1c-1.6,7,3.3,11.3,7,14.5c0.4,0.3,0.7,0.6,1,0.9l-0.2,0.3
			c-2.6,4.6-5.4,13.3-2.6,18.6c1.4,2.5,3.8,4.2,6.5,4.6c0.6,0.1,1.2,0.2,1.8,0.2c1.2,0,2.4-0.2,3.5-0.7c-0.1,2.5-0.4,5.3-0.9,8.5
			c-0.1,1.1,0.6,2,1.7,2.2c0.1,0,0.2,0,0.3,0c1,0,1.8-0.7,1.9-1.7c2.7-18.4,0.3-26.5-10.4-35.9c-4-3.5-6.7-6.3-5.7-10.6
			c0.5-1.8,1.3-3.5,2.3-5.1l0.3-0.6c1.4-2.2,2.2-4.6,2.6-7.2c0.4-4.9-2.6-7.7-4.9-9.9s-5.2-4.9-8.5-7.8
			c-21.5-19.4-25.8-49.2-28.6-80.7c-0.8-8.2-1.8-17-2.8-25.5s-2.1-17.3-2.8-25.4c-0.3-3.4-0.4-7.6,2.1-9.3c1.8-1.2,4.5-0.6,6.2,0.5
			c2.2,1.4,3.8,3.7,5.4,6c4.6,6.6,9.4,13.7,14.3,20.8s9.7,14.2,14.3,20.9c4.6,6.8,8.7,13.8,12.5,21c2,3.7,4.1,7.5,6.3,11.4
			c0.1,2.4,0.3,4.7,0.8,7L540,350.7c-1-0.5-2.2-0.1-2.7,0.9c-0.3,0.7-0.3,1.5,0.2,2.1c18.6,21.2,30.8,47.3,35,75.1
			c-0.1,1.1,0.8,2,1.9,2.1s2-0.8,2.1-1.9c0-0.3,0-0.5-0.1-0.8c-3.7-24.5-13.4-47.7-28.2-67.6l17.9,11.5c0.7,0.4,1.6,0.4,2.3-0.1
			c0.7-0.5,0.9-1.4,0.6-2.2c-1.3-3.4-2-7-2.1-10.7c0.1-0.3,0.1-0.7,0-1c-0.1-10.9,4.5-21.3,12.6-28.6c-5.4,23.6-3.7,48.3,4.7,71.1
			c1.7,5.1,3.1,10.3,4.1,15.6c0.4,2.1,0.9,4.3,1.4,6.4c0.1,0.6,0.5,1,1,1.3c0.5,0.2,1.1,0.2,1.7,0c4.8-2.5,10.6-2.5,15.4,0
			c0.5,0.2,1.1,0.2,1.7,0c0.5-0.3,0.9-0.7,1-1.3c0.5-2.1,0.9-4.2,1.4-6.4c1-5.3,2.3-10.5,4.1-15.6c8.4-22.7,10-47.4,4.7-71.1
			c8.2,7.3,12.8,17.8,12.6,28.8c0,0,0,0.1,0,0.1c-0.1,3.9-0.8,7.7-2.1,11.4c-0.3,0.8-0.1,1.7,0.6,2.2c0.7,0.5,1.6,0.6,2.3,0.1
			l17.9-11.5c-14.8,19.9-24.5,43.1-28.2,67.6c-0.1,1.1,0.6,2.1,1.7,2.2h0.3c1,0,1.8-0.7,1.9-1.7c4.2-27.9,16.4-54,35-75.1
			c0.6-0.9,0.4-2.2-0.6-2.8c-0.6-0.4-1.3-0.4-1.9-0.1L636.2,366c0.5-2.3,0.8-4.6,0.8-6.9c2.3-3.9,4.4-7.7,6.4-11.5
			c3.8-7.2,7.9-14.2,12.5-21c4.6-6.6,9.4-13.7,14.3-20.8s9.7-14.2,14.3-20.9c1.6-2.2,3.2-4.6,5.4-6c1.7-1.1,4.4-1.7,6.2-0.5
			c2.5,1.7,2.4,5.9,2.1,9.3c-0.8,8.1-1.8,16.9-2.8,25.4s-2.1,17.3-2.8,25.5c-2.8,31.4-7.1,61.2-28.6,80.7c-3.3,2.9-6,5.4-8.5,7.8
			c-1.9,1.8-4,3.9-4.7,7.1c0,0.1,0,0.1,0,0.2c-0.2,0.9-0.2,1.8-0.2,2.7c0.3,2.6,1.2,5,2.6,7.2l0.3,0.6c1,1.6,1.7,3.3,2.2,5.1
			c1,4.4-1.8,7.2-5.7,10.6c-10.7,9.4-13.1,17.5-10.4,35.9c0.2,1,1,1.7,1.9,1.7c0.1,0,0.2,0,0.3,0c1.1-0.2,1.8-1.1,1.7-2.2
			c-0.5-3.2-0.8-6-0.9-8.5c1.1,0.5,2.3,0.7,3.4,0.7c0.6,0,1.2-0.1,1.8-0.2c2.8-0.5,5.2-2.2,6.5-4.6c2.8-5.3,0-14-2.6-18.6l-0.2-0.3
			c0.3-0.3,0.7-0.6,1-0.9c3.6-3.2,8.5-7.5,7-14.5c-0.6-2.2-1.5-4.2-2.7-6.1l-0.3-0.6c-1.1-1.7-1.8-3.6-2.1-5.6c0-0.3,0-0.6,0-0.8
			c60.3-20.8,80-91,84.9-114.5c10.9,37,2.7,65.3-6.5,82.9c-10.6,20.4-24.8,31.3-25,31.4c-0.8,0.8-0.8,2,0,2.8c0.5,0.5,1.3,0.7,2,0.5
			c36.5-17.6,52.6-52.8,58-67.9c6.2,31.7,4.7,72.6-51.9,93.6c-0.8,0.3-1.3,1-1.3,1.8c0,0.2,0,0.5,0.1,0.7c0.4,1,1.5,1.5,2.5,1.2
			l59.4-22.1C772.8,457.3,757.9,489.1,713.8,489.1z"/>
		<path class="st1" d="M564.7,296.3c0.3,0.8,1,1.2,1.8,1.3c0.2,0,0.5,0,0.7-0.1c1-0.4,1.5-1.5,1.1-2.5l-15.9-41.8
			c-0.6-0.9-1.8-1.2-2.8-0.6c-0.7,0.4-1.1,1.2-0.9,2L564.7,296.3z"/>
		<path class="st1" d="M632.8,297.4c0.2,0.1,0.5,0.1,0.7,0.1c0.8,0,1.5-0.5,1.8-1.3l15.9-41.8c0.2-1.1-0.6-2.1-1.6-2.3
			c-0.8-0.1-1.6,0.2-2,0.9l-15.9,41.8C631.3,295.9,631.8,297,632.8,297.4z"/>
		<path class="st1" d="M600,293.7c1.1,0,2-0.8,2-1.9c0,0,0,0,0-0.1v-45.6c-0.2-1.1-1.3-1.8-2.4-1.5c-0.7,0.2-1.3,0.8-1.5,1.5v45.6
			C598.1,292.8,598.9,293.6,600,293.7z"/>
	</g>
</g>
<g id="target_00000161594946746686660290000005576032615742313645_">
	<g id="target">
		<path class="st2" d="M600,564.9c-75.3,0-136.4-61.1-136.4-136.4S524.7,292.1,600,292.1s136.4,61.1,136.4,136.4v0
			C736.4,503.8,675.3,564.9,600,564.9z M824.8,428.5c0-124.1-100.6-224.8-224.8-224.8S375.2,304.4,375.2,428.5
			S475.9,653.3,600,653.3S824.8,552.6,824.8,428.5z M617,428.5c0-9.4-7.6-17-16.9-17c-9.4,0-17,7.6-17,16.9c0,9.4,7.6,17,16.9,17
			c0,0,0,0,0,0C609.4,445.5,617,437.9,617,428.5z M600,179.5v186.9 M600,490.6v186.9 M351,428.5h186.9 M662.1,428.5H849"/>
	</g>
</g>
<g id="textline">
	<g>
		<g>
			<g>
				<path d="M297.1,246.9l9.4-14.5c2.2-3.3,4.7-5.3,7.6-5.8s6.1,0.4,9.7,2.7c3,2,5,3.9,6,5.9s1.1,4.1,0.3,6.4l0.2,0.2
					c1.9-1.8,4-2.7,6.1-2.6c2.1,0,4.8,1.1,8,3.2c3.7,2.4,6.1,5.1,7,7.9c0.9,2.8,0.1,6.1-2.3,9.8l-9.4,14.5L297.1,246.9z
					 M322.6,246.1c0.7-1.1,1.1-2,1.2-2.7s-0.2-1.4-0.7-2.1c-0.6-0.7-1.5-1.5-2.9-2.5c-1.5-1-2.6-1.6-3.5-1.8
					c-0.8-0.2-1.5-0.2-2.2,0.2c-0.6,0.4-1.3,1.1-2,2.3l-2.5,3.8l10.1,6.6L322.6,246.1z M340.2,257.5c0.7-1.2,1.2-2.1,1.3-2.8
					c0.1-0.7-0.1-1.4-0.7-2.1c-0.6-0.7-1.7-1.5-3.2-2.5s-2.7-1.6-3.6-1.9c-0.9-0.2-1.6-0.2-2.3,0.2c-0.6,0.4-1.3,1.1-2,2.2l-2.5,3.9
					l10.6,6.9L340.2,257.5z"/>
				<path d="M329.2,202l9.7-11.1l45.1,25.4l-6.7,7.7l-9.3-5.4l-7.4,8.5l6.7,8.4l-6.6,7.6L329.2,202z M360.6,214.1l-19.1-11.4
					l-0.3,0.4l14,17.3L360.6,214.1z"/>
				<path d="M407.1,195.6l-15.4-10.3l-4,3.5l11.7,13.5l-7.7,6.7l-33.2-38.4l12.9-11.2c2.7-2.3,5.2-3.7,7.4-3.9
					c2.2-0.3,4.3,0.3,6.2,1.6c2,1.3,4.2,3.5,6.8,6.5c2.4,2.8,4.1,5.3,5.2,7.5s1.2,4.5,0.6,6.7l17.5,11L407.1,195.6z M387.6,176.7
					c0.2-0.7,0.1-1.6-0.4-2.5s-1.5-2.3-3.1-4.1c-1.5-1.8-2.7-3-3.6-3.6c-0.8-0.6-1.6-0.9-2.4-0.7c-0.7,0.2-1.7,0.8-2.9,1.8l-3.3,2.9
					l10.2,11.8l3.3-2.9C386.7,178.3,387.4,177.4,387.6,176.7z"/>
				<path d="M396.2,139.7l14.5-9.4c3.3-2.2,6.4-2.9,9.2-2.2c2.8,0.7,5.4,2.8,7.7,6.4c2,3,3,5.6,3.1,7.8s-0.7,4.2-2.3,6l0.2,0.2
					c2.5-0.9,4.7-0.8,6.6,0.1c1.9,0.9,4,3,6,6.2c2.4,3.7,3.5,7.1,3.1,10.1c-0.3,2.9-2.4,5.6-6.1,8l-14.5,9.4L396.2,139.7z
					 M419.8,149.3c1.1-0.7,1.8-1.4,2.2-2s0.4-1.4,0.2-2.3c-0.2-0.9-0.8-2-1.7-3.4c-1-1.5-1.8-2.5-2.4-3.1c-0.7-0.6-1.3-0.8-2-0.7
					s-1.6,0.5-2.8,1.3l-3.8,2.5l6.6,10.1L419.8,149.3z M431.4,166.9c1.2-0.8,1.9-1.4,2.3-2s0.4-1.3,0.2-2.2
					c-0.3-0.9-0.9-2.1-1.9-3.6s-1.8-2.6-2.6-3.2c-0.7-0.6-1.4-0.9-2.1-0.8s-1.6,0.5-2.7,1.2l-3.9,2.5l6.9,10.6L431.4,166.9z"/>
				<path d="M444.4,111.3l13.4-6.2l30.8,41.7l-9.3,4.3l-6.3-8.7l-10.2,4.7l2.6,10.4l-9.2,4.3L444.4,111.3z M468.2,135.1l-12.8-18.2
					l-0.5,0.2l5.7,21.5L468.2,135.1z"/>
				<path d="M518.2,137.3l-9.8-15.7l-5.1,1.5l5.1,17.1l-9.7,2.9L484,94.5l16.4-4.9c3.4-1,6.2-1.2,8.3-0.6c2.1,0.7,3.8,2,5,4
					c1.2,2,2.4,4.9,3.6,8.7c1.1,3.5,1.6,6.5,1.7,9c0,2.5-0.7,4.6-2.2,6.3l11.5,17.2L518.2,137.3z M508.1,112.1
					c0.5-0.6,0.7-1.4,0.7-2.4s-0.5-2.7-1.2-5s-1.3-3.9-1.8-4.8c-0.5-0.9-1.1-1.5-1.9-1.6c-0.7-0.2-1.9,0-3.4,0.4l-4.2,1.3l4.5,14.9
					l4.2-1.3C506.5,113.2,507.6,112.7,508.1,112.1z"/>
				<path d="M540.4,80.3l14.6-2.1l17.7,48.7l-10.2,1.5l-3.5-10.2l-11.1,1.6l-0.4,10.7l-10,1.5L540.4,80.3z M556.2,110l-7-21.1
					l-0.5,0.1l-0.7,22.3L556.2,110z"/>
				<path d="M612.7,75.7l10.2,0.7l-2.8,41.6l12.7,0.9l-0.6,9.1l-22.9-1.5L612.7,75.7z"/>
				<path d="M658.2,80.5l14.5,2.8l0.6,51.8l-10.1-1.9v-10.7l-11-2.1l-3.9,10l-9.9-1.9L658.2,80.5z M663.5,113.7l0.3-22.3l-0.5-0.1
					l-8,20.8L663.5,113.7z"/>
				<path d="M698.5,89.5l9.4,3.2l1.7,28.1l0.4,0.1l8.4-24.6l9.2,3.2l-16.5,48l-8.7-3l-1.7-30.4l-0.3-0.1l-9.2,26.7l-9.1-3.1
					L698.5,89.5z"/>
				<path d="M726.9,153c-1.4-2.3-1.6-5.3-0.8-8.9c0.8-3.6,2.9-8.7,6.2-15.1c3.3-6.5,6.1-11.2,8.6-14c2.4-2.8,5.1-4.3,7.8-4.5
					s6.3,0.8,10.6,3c1.7,0.8,3.5,1.9,5.4,3.2c1.9,1.3,3.5,2.5,4.9,3.7l-3.7,7.3c-3.5-2.4-6.2-4-7.9-4.9c-3-1.5-5.1-2.3-6.5-2.4
					c-1.3-0.1-2.7,0.8-4.1,2.6c-1.4,1.8-3.4,5.3-6.1,10.5c-2.5,4.9-4.1,8.4-4.9,10.6c-0.8,2.2-1,3.8-0.5,4.9
					c0.4,1.1,1.6,2.1,3.4,3.1c1.3,0.7,2.4,1.1,3.3,1.4l5.7-11.3l-4.1-2.1l3.8-7.6l12.4,6.3l-12.8,25.3c-1.8-0.4-3.8-1-6.2-1.9
					c-2.3-0.8-4.4-1.7-6.3-2.7C731,157.5,728.2,155.3,726.9,153z"/>
				<path d="M762.4,172.6c-1.1-2.5-0.9-5.4,0.4-8.9c1.3-3.5,4-8.2,8.1-14.2s7.6-10.2,10.4-12.7c2.8-2.5,5.6-3.6,8.3-3.4
					c2.8,0.2,6.1,1.7,10.1,4.4c1.5,1.1,3.2,2.4,4.9,3.9s3.2,2.9,4.3,4.3l-4.6,6.8c-3.2-2.8-5.6-4.8-7.1-5.9c-2.8-1.9-4.8-3-6.1-3.2
					s-2.8,0.4-4.4,2c-1.6,1.6-4.1,4.8-7.4,9.6c-3.1,4.5-5.2,7.8-6.2,9.8c-1.1,2-1.5,3.6-1.2,4.8s1.3,2.3,3,3.5
					c1.2,0.8,2.2,1.4,3,1.8l7.2-10.5l-3.8-2.6l4.8-7l11.5,7.9l-16.1,23.4c-1.7-0.6-3.7-1.5-5.9-2.7s-4.1-2.3-5.8-3.5
					C765.9,177.6,763.4,175.1,762.4,172.6z"/>
				<path d="M794,196.2c-0.6-2.4-0.1-4.9,1.5-7.5s4.7-6.3,9.2-11.3l19-20.9l7.5,6.8L810,186.7c-2.5,2.7-4.1,4.7-4.9,5.8
					c-0.8,1.1-1.1,2-0.9,2.8c0.2,0.7,0.9,1.7,2.1,2.8c1.2,1.1,2.2,1.7,2.9,1.8c0.8,0.1,1.6-0.3,2.7-1.2s2.8-2.7,5.3-5.4l21.2-23.4
					l7.5,6.8l-19,20.9c-4.5,4.9-8,8.4-10.4,10.2c-2.4,1.9-4.9,2.6-7.3,2.2c-2.5-0.4-5.4-2.2-8.9-5.4
					C796.7,201.4,794.5,198.6,794,196.2z"/>
				<path d="M854.8,199.6l-6.2-7.2l6.9-5.9l19.1,22.1l-6.9,5.9l-6.2-7.2l-31.6,27.2l-6.6-7.7L854.8,199.6z"/>
				<path d="M883.2,220.1l5.6,8.5l-17.1,11.3l5.6,8.4l17.1-11.3l5.6,8.5l-42.3,28l-5.6-8.5l17.4-11.5l-5.6-8.4l-17.4,11.5l-5.6-8.5
					L883.2,220.1z"/>
			</g>
		</g>
		<g>
			<g>
				<path d="M267.1,310.1c1.8-1.5,4.5-2,8.1-1.6c3.6,0.5,9,1.9,16.4,4.4c7.3,2.4,12.6,4.6,15.7,6.3c3.1,1.8,5,3.8,5.5,6.1
					c0.6,2.3,0.2,5.5-1.2,9.7c-0.4,1.3-1,2.6-1.6,4s-1.2,2.4-1.8,3.2l-3.4-1.1c1.2-2.2,2.2-4.3,2.9-6.4c1.1-3.4,1.5-6,1.1-7.6
					c-0.4-1.7-1.9-3.2-4.5-4.6s-7.3-3.2-14-5.4c-6.7-2.2-11.5-3.6-14.4-4.1s-5-0.2-6.4,0.9s-2.6,3.4-3.7,6.8
					c-0.8,2.6-1.4,4.9-1.6,7.1l-3.6-1.2c0.1-1.1,0.3-2.4,0.7-3.9c0.3-1.5,0.7-2.8,1.1-4.1C263.7,314.4,265.2,311.6,267.1,310.1z"/>
				<path d="M251.5,364.2l21.9-2.2l0.3-1.4l2.2-10.3l-20.5-4.3l0.9-4.3l49.7,10.4l-3.1,15c-0.7,3.3-1.8,5.7-3.4,7.1
					s-3.4,2.1-5.5,2.1s-4.8-0.3-8-0.9c-3.7-0.8-6.6-1.8-8.7-3s-3.4-3.2-3.7-6l-22.8,2.4L251.5,364.2z M277.7,366.3
					c0.6,1.3,1.6,2.3,3,3c1.4,0.6,3.4,1.2,6.1,1.8c2.7,0.6,4.8,0.8,6.3,0.8s2.8-0.5,3.8-1.5s1.8-2.6,2.3-5l2.1-9.9l-21.7-4.5l-2,9.8
					C277.1,363.1,277.1,364.9,277.7,366.3z"/>
				<path d="M298.8,391.4l-1.9,23.5l-3.8-0.3l1.5-19.1l-19.3-1.6l-1.3,16.6l-3.8-0.3l1.3-16.6l-19.9-1.6l-1.5,19.1l-3.8-0.3
					l1.9-23.5L298.8,391.4z"/>
				<path d="M297.1,435.8l0.2,5.4L247.1,457l-0.2-4.4l14.8-4.6l-0.6-16.4l-15.1-3.4l-0.2-4.3L297.1,435.8z M265.5,446.8l25.7-7.9
					v-0.4l-26.2-5.9L265.5,446.8z"/>
				<path d="M296.1,470l-1.7-11.5l3.9-0.6l4.1,27.3l-3.9,0.6l-1.7-11.5l-46.4,6.9l-0.6-4.3L296.1,470z"/>
				<path d="M304.5,494.2l1,4.2l-49.4,11.7l-1-4.2L304.5,494.2z"/>
				<path d="M308.2,510.4l1.5,4.3l-38.2,25.4l0.1,0.3l45.7-3.8l1.4,4.1l-52.3,4.1l-1.8-5.1L308.2,510.4z"/>
				<path d="M323.4,550.7l10.5,21.2l-3.4,1.7l-8.5-17.2l-17.3,8.6l7.4,15l-3.4,1.7l-7.4-14.9l-17.9,8.8l8.5,17.2l-3.4,1.7L278,573.3
					L323.4,550.7z"/>
				<path d="M354.2,603.7l2.7,3.5l-37.1,28.6l10.4,13.5l-3.1,2.4l-13.1-17L354.2,603.7z"/>
				<path d="M371.9,625.9l16.2,17.2l-2.8,2.6l-13.2-14L358,645l11.4,12.1l-2.8,2.6l-11.4-12.1l-14.5,13.7l13.2,14l-2.8,2.6
					L335,660.7L371.9,625.9z"/>
				<path d="M402,655.5l4.1,3.5L384,706.7l-3.4-2.9l6.6-14.1l-12.5-10.6L362,688l-3.3-2.8L402,655.5z M388.8,686.2l11.5-24.3
					l-0.3-0.3L377.9,677L388.8,686.2z"/>
				<path d="M423.2,672.5l9.8,6.4c4,2.6,6.6,5,7.6,7.2c1.1,2.2,0.9,4.8-0.4,7.9c-1.3,3.1-4.1,8-8.4,14.5c-4.3,6.6-7.6,11.1-9.9,13.5
					s-4.7,3.6-7.1,3.5s-5.6-1.5-9.6-4.1l-9.8-6.4L423.2,672.5z M407.2,718.1c3.1,2,5.4,3.1,7.1,3.2c1.6,0.1,3.4-0.8,5.3-2.9
					c1.9-2.1,4.9-6.2,8.8-12.2c3.9-6.1,6.5-10.4,7.6-13s1.3-4.6,0.5-6s-2.7-3.1-5.8-5.1l-5.9-3.9l-23.6,36.1L407.2,718.1z"/>
				<path d="M499.5,736.7l-1.3,3.5l-5.9-2.3l-8.3,21.6c-1.5-0.2-3.3-0.6-5.4-1.1c-2.1-0.6-4-1.2-5.8-1.8c-4.1-1.6-7-3.3-8.7-5.1
					s-2.6-3.8-2.6-5.9c0-2.1,0.6-4.8,1.7-7.8c1.4-3.6,2.9-6.1,4.6-7.3s3.8-1.8,6.3-1.6l0.1-0.3c-1.8-1.5-2.9-3.3-3.3-5.4
					c-0.4-2.1,0.1-4.8,1.4-8.2c1.1-2.8,2.3-4.9,3.8-6.4s3.4-2.3,5.9-2.5c2.4-0.2,5.6,0.4,9.4,1.9c1.6,0.6,3.4,1.4,5.3,2.4
					s3.5,1.9,4.9,2.8l-1.2,3.2c-3.5-2.2-6.5-3.7-9-4.6c-3.4-1.3-6-2-7.9-2s-3.3,0.6-4.3,1.7c-1,1.1-2,2.9-3,5.5
					c-1.1,2.8-1.4,5.2-1.2,7.2c0.3,2.1,1.9,3.7,5,4.8l4.8,1.8l-1.4,3.5l-4.8-1.8c-2.2-0.8-4-1.1-5.4-0.8s-2.5,1.1-3.4,2.3
					s-1.7,3-2.6,5.3c-1,2.7-1.4,4.9-1.2,6.6c0.2,1.7,1,3,2.3,4.1s3.3,2.1,6,3.1c2.8,1,5.1,1.7,7.1,1.9l8.5-22.3L499.5,736.7z"/>
				<path d="M538.5,722.7l11.6,1.8c4.8,0.8,8.1,1.9,9.9,3.4c1.8,1.5,2.8,4,2.9,7.4c0.1,3.4-0.5,8.9-1.7,16.7
					c-1.2,7.7-2.4,13.2-3.5,16.4s-2.8,5.2-5.1,6.1c-2.2,0.9-5.7,1-10.5,0.2l-11.6-1.8L538.5,722.7z M542.4,770.9
					c3.6,0.6,6.2,0.6,7.8,0.1c1.5-0.5,2.7-2.1,3.7-4.8c0.9-2.7,1.9-7.6,3.1-14.8c1.1-7.1,1.7-12.1,1.6-15c0-2.9-0.7-4.8-2-5.7
					c-1.3-1-3.7-1.7-7.4-2.3l-7-1.1l-6.8,42.6L542.4,770.9z"/>
				<path d="M577.5,727.9l23.6,0.8l-0.1,3.8l-19.2-0.7l-0.7,19.3l16.7,0.6l-0.1,3.8l-16.7-0.6l-0.7,19.9l19.2,0.7l-0.1,3.8
					l-23.6-0.8L577.5,727.9z"/>
				<path d="M620.2,779c-2.3,0-4.3-0.1-6-0.2L614,775c1.8,0.1,3.7,0.2,5.8,0.2s3.8,0,5.2-0.1c2-0.2,3.6-0.4,4.8-0.8
					c1.2-0.4,2.2-0.9,2.9-1.7c0.7-0.7,1.2-1.8,1.3-3.2s0.1-3.2,0-5.5c-0.2-3-0.5-5.1-0.8-6.2c-0.3-1.1-0.8-1.9-1.6-2.3
					s-2.2-0.7-4.3-0.9l-9.2-0.7c-2-0.2-3.6-0.8-4.6-1.7c-1.1-1-1.8-2.2-2.2-3.8s-0.7-3.8-0.9-6.6c-0.4-4.9,0.4-8.5,2.3-10.8
					c1.9-2.2,5.2-3.5,10-3.9c2.1-0.2,4.1-0.2,6.2-0.2s3.7,0.2,4.9,0.4l0.3,3.7c-1.4-0.1-3-0.2-4.9-0.3c-1.9,0-3.6,0-5.2,0.1
					c-2.2,0.2-3.9,0.5-5.2,1c-1.2,0.5-2.2,1.2-2.9,2.1c-0.6,0.9-0.9,1.9-1.1,3.1c-0.1,1.2-0.1,2.7,0,4.5c0.2,2.5,0.4,4.2,0.7,5.3
					s0.8,1.8,1.4,2.2c0.6,0.4,1.7,0.7,3.2,0.8l8.6,0.7c2.2,0.2,4,0.6,5.2,1.1c1.3,0.6,2.2,1.7,3,3.3c0.4,0.7,0.6,1.7,0.8,2.9
					s0.4,3,0.6,5.3c0.3,3.6,0.1,6.5-0.5,8.7s-1.8,3.8-3.5,4.9c-1.8,1.1-4.3,1.8-7.6,2.1C624.8,779,622.5,779,620.2,779z"/>
				<path d="M649,724.4l4.2-0.7l8.7,50l-4.2,0.7L649,724.4z"/>
				<path d="M687,766.9c-2.4-0.6-4.5-2.6-6.2-5.8c-1.8-3.2-3.7-8.5-5.8-15.8c-2-7.2-3.2-12.7-3.4-16.3c-0.2-3.7,0.6-6.4,2.2-8.3
					c1.7-1.8,4.7-3.4,9-4.6c1.8-0.5,3.8-0.9,5.9-1.3c2.2-0.3,4-0.5,5.5-0.5l1,3.5c-1.6,0.1-3.3,0.3-5.1,0.6s-3.3,0.6-4.3,0.9
					c-4,1.1-6.7,2.3-8,3.5c-1.4,1.2-2,3.3-1.8,6.3s1.2,8.1,3.2,15.1c1.8,6.4,3.4,11,4.7,13.8s2.8,4.4,4.5,5s4.3,0.5,7.6-0.5
					c1.1-0.3,2.4-0.7,3.7-1.3c1.3-0.5,2.4-1,3.2-1.5l-5.1-18l-8.2,2.3l-1-3.7l12.2-3.5l7,24.8c-1.5,0.8-3.3,1.7-5.3,2.5
					s-3.8,1.5-5.4,1.9C692.8,767.3,689.4,767.6,687,766.9z"/>
				<path d="M708,708.5l4.3-1.9l33.9,30l0.3-0.1L730,698.9l3.8-1.7l20.5,46.4l-4.2,1.8L716,715.2l-0.3,0.1l16.8,37.9l-3.9,1.7
					L708,708.5z"/>
				<path d="M768.9,676.9l4.9-3.8l36.3,26.4l0.3-0.2L794,657.4l4.8-3.7l31.1,40.1l-3.4,2.6l-26-33.5l-0.2,0.2l16.1,41.1l-3.1,2.4
					l-35.7-25.9l-0.3,0.2l26,33.5l-3.3,2.5L768.9,676.9z"/>
				<path d="M815.8,636.8l3.7-3.9l46.3,25l-3.1,3.2l-13.6-7.4l-11.3,11.9l8.1,13.2l-3,3.2L815.8,636.8z M845.5,651.8L822,638.9
					l-0.3,0.3l14,22.9L845.5,651.8z"/>
				<path d="M836,614.2l2.8-3.8l44.4,8.7l0.2-0.2l-33.4-24l2.5-3.4l41.2,29.7l-2.7,3.7l-44.8-8.8l-0.2,0.2l33.7,24.2l-2.5,3.4
					L836,614.2z"/>
				<path d="M865,569.6l2.5-4.8l51.4,11.4l-2.1,3.9l-15.1-3.4l-7.6,14.5l11.4,10.5l-2,3.8L865,569.6z M897.9,575.8l-26.2-6l-0.2,0.4
					l19.7,18.3L897.9,575.8z"/>
				<path d="M926.2,555.2c-1.9,1.5-4.7,2.1-8.4,1.6s-9-2-16.2-4.6c-7.1-2.6-12.1-4.9-15.2-6.9c-3.1-2-4.9-4.2-5.4-6.7s0-5.8,1.5-10
					c0.6-1.8,1.5-3.6,2.5-5.5s1.9-3.5,2.8-4.8l3.4,1.2c-0.9,1.4-1.7,2.9-2.5,4.5s-1.4,3-1.8,4c-1.4,3.9-2.1,6.7-1.9,8.5
					c0.1,1.8,1.5,3.5,4.1,5.2c2.6,1.6,7.3,3.7,14.1,6.2c6.3,2.3,10.9,3.7,13.9,4.3s5.2,0.3,6.8-0.7c1.5-1,2.9-3.2,4.1-6.4
					c0.4-1.1,0.8-2.4,1.1-3.7c0.4-1.4,0.6-2.5,0.6-3.5l-17.5-6.4l-2.9,8l-3.6-1.3l4.4-11.9l24.2,8.9c-0.2,1.8-0.6,3.7-1.1,5.8
					s-1.1,4-1.6,5.5C929.9,550.8,928,553.7,926.2,555.2z"/>
				<path d="M891.2,503.9l5.2-23l3.7,0.9l-4.3,18.7l18.9,4.3l3.7-16.3l3.7,0.9l-3.7,16.3l19.4,4.4l4.3-18.7l3.7,0.8l-5.2,23
					L891.2,503.9z"/>
				<path d="M898.8,468l0.5-6.2l43.9-9.3v-0.4l-42-15.9l0.5-6l50.6,3.8l-0.3,4.3l-42.2-3.1v0.3l41.3,15.6l-0.3,4l-43.2,9.2v0.4
					l42.2,3.1l-0.3,4.1L898.8,468z"/>
				<path d="M900.9,413.6l-1.8-23.5l3.8-0.3l1.4,19.1l19.3-1.5l-1.3-16.6l3.8-0.3l1.3,16.6l19.9-1.5l-1.5-19.1l3.8-0.3l1.8,23.5
					L900.9,413.6z"/>
				<path d="M897.2,376.5l-1-4.6l36.2-27.1l-0.1-0.3l-40.2,8.6l-0.9-4.1l49.6-10.7l1,4.5l-36.6,27.3l0.1,0.3l40.5-8.7l0.9,4.1
					L897.2,376.5z"/>
				<path d="M888.2,326.4l3.9,11l-3.7,1.3l-9.2-26l3.7-1.3l3.9,10.9l44.2-15.6l1.5,4.1L888.2,326.4z"/>
			</g>
		</g>
	</g>
</g>
</svg>
