<svg xmlns="http://www.w3.org/2000/svg" viewBox="0 0 86.09 85.83"><defs><style>.cls-1{fill:#1d1d1b;}.cls-2{fill:#010101;}</style></defs><g id="Ebene_2" data-name="Ebene 2"><g id="Ebene_3" data-name="Ebene 3"><path class="cls-1" d="M67.44,44.52l-4.69,1.75a9.48,9.48,0,0,0,3.56-4.85,14.49,14.49,0,0,0-.08-7.56.28.28,0,0,0-.26-.21h0a.27.27,0,0,0-.26.21,16.87,16.87,0,0,1-6.12,8.82C61.7,40.23,65,34.85,62.21,27a.26.26,0,0,0-.28-.18.28.28,0,0,0-.24.23c0,.13-1.78,12.41-10.83,16L51,43c.33-.33.7-.66,1.14-1.06,3.08-2.77,3.7-7.12,4.07-11.34.11-1.11.25-2.31.39-3.47s.28-2.36.39-3.47a1.82,1.82,0,0,0-.51-1.76,1.34,1.34,0,0,0-1.44.06,3.33,3.33,0,0,0-.88,1c-.62.9-1.29,1.87-1.95,2.85l-1.94,2.83A31,31,0,0,0,48.5,31.5c-.15.27-.31.55-.46.84a5.58,5.58,0,0,0-2.51-3.94.26.26,0,0,0-.3,0,.28.28,0,0,0-.09.29,16.38,16.38,0,0,1,.41,6.77,16.93,16.93,0,0,1-.85,3.31A15.35,15.35,0,0,0,44.12,41c0,.19-.07.37-.11.55a3.88,3.88,0,0,0-1-.18h0a3.72,3.72,0,0,0-1,.18L42,41a15.35,15.35,0,0,0-.58-2.21,16.93,16.93,0,0,1-.85-3.31,16.38,16.38,0,0,1,.41-6.77.27.27,0,0,0-.09-.29.26.26,0,0,0-.3,0,5.55,5.55,0,0,0-2.5,3.92l-.46-.82a31,31,0,0,0-1.73-2.92l-1.94-2.84L32,22.9a3.33,3.33,0,0,0-.88-1,1.34,1.34,0,0,0-1.44-.06,1.82,1.82,0,0,0-.51,1.76c.11,1.11.25,2.31.39,3.48s.28,2.35.39,3.46c.37,4.22,1,8.57,4.07,11.34.44.4.81.73,1.15,1.06l.1.1c-9.06-3.6-10.83-15.89-10.85-16a.27.27,0,0,0-.24-.23.27.27,0,0,0-.28.18c-2.75,7.84.51,13.22,2.62,15.67a16.87,16.87,0,0,1-6.12-8.82.27.27,0,0,0-.26-.21h0a.28.28,0,0,0-.26.21c-.52,2.25-2,8.39,3.5,12.42l-4.71-1.76a.27.27,0,0,0-.36.31,9.22,9.22,0,0,0,5.89,6.26l-4.16,0a.26.26,0,0,0-.22.13.27.27,0,0,0,0,.26A7.92,7.92,0,0,0,22,54a7,7,0,0,0,3.87,1.38l-3.2,1a.27.27,0,0,0-.18.18.28.28,0,0,0,.06.25,8.13,8.13,0,0,0,5.91,2.52l-2.28,1.19a.26.26,0,0,0-.14.21.25.25,0,0,0,.09.23,8,8,0,0,0,4.63,1.78,5.23,5.23,0,0,0,3.45-1.3.3.3,0,0,0,0,.1,5.2,5.2,0,0,0,3.55,3.3,4,4,0,0,0,1.09.26c.16.28.31.52.47.77l.37.59a.28.28,0,0,0,.23.13h0a.25.25,0,0,0,.21-.21c0-.21.09-.41.13-.61s.12-.54.17-.83a1.84,1.84,0,0,0,.25-.09,3,3,0,0,0,.75-.42.18.18,0,0,0,.09-.06l.13-.12h0A2,2,0,0,1,43,63.79a2,2,0,0,1,1.28.45l0,0a1.14,1.14,0,0,0,.11.11.24.24,0,0,0,.09.06,3,3,0,0,0,.75.42,2.5,2.5,0,0,0,.25.09c.06.29.12.56.18.83s.08.4.13.61a.24.24,0,0,0,.21.21h.05a.28.28,0,0,0,.23-.13l.37-.59c.16-.25.31-.49.47-.77A4.36,4.36,0,0,0,48,65h0l.22-.07a5.22,5.22,0,0,0,3.6-3.32s0-.06,0-.09a5.24,5.24,0,0,0,3.44,1.29A8,8,0,0,0,60,61a.26.26,0,0,0,.1-.23.27.27,0,0,0-.15-.21l-2.28-1.19a8.17,8.17,0,0,0,5.91-2.52.28.28,0,0,0,.06-.25.27.27,0,0,0-.18-.18l-3.2-1a7.7,7.7,0,0,0,6.09-3.85.27.27,0,0,0,0-.26.25.25,0,0,0-.22-.13l-4.16,0a9.2,9.2,0,0,0,5.89-6.26.27.27,0,0,0-.09-.26A.28.28,0,0,0,67.44,44.52ZM40.57,64.37a3.52,3.52,0,0,1-2.31.08h0L38,64.37a2.62,2.62,0,0,1-.6-.31,3.37,3.37,0,0,1-1.5-2.83,7,7,0,0,1,.69-3.2A1.54,1.54,0,0,1,38,57a2,2,0,0,1,.65.12,1.67,1.67,0,0,1,1.21,1,5.87,5.87,0,0,0,1.48,2.16,2.62,2.62,0,0,1,.76,2.26A2.5,2.5,0,0,1,40.57,64.37Zm5.15-6.9h0a1.86,1.86,0,0,0-1,.65,2.53,2.53,0,0,1-.42.39,2.18,2.18,0,0,1-1.26.42h0a2.18,2.18,0,0,1-1.26-.42,2.53,2.53,0,0,1-.42-.39,1.82,1.82,0,0,0-1-.65h0s0,0,0,0c.66-1.15,1.35-1.91,2.59-1.92h.18c1.25,0,1.94.77,2.59,1.93l0,0ZM43,63.25a2.49,2.49,0,0,0-.61.08,3,3,0,0,0,.22-.66,3.17,3.17,0,0,0-.9-2.74,5.46,5.46,0,0,1-1.32-1.88,2.1,2.1,0,0,1,.53.44,2.92,2.92,0,0,0,.51.48,2.76,2.76,0,0,0,1.53.5h.08a2.76,2.76,0,0,0,1.53-.5,2.92,2.92,0,0,0,.51-.48,2.1,2.1,0,0,1,.53-.44,5.46,5.46,0,0,1-1.32,1.88,3.17,3.17,0,0,0-.9,2.74,3.65,3.65,0,0,0,.22.66A2.49,2.49,0,0,0,43,63.25Zm.91-.69a2.6,2.6,0,0,1,.77-2.26,6,6,0,0,0,1.47-2.16,1.69,1.69,0,0,1,1.21-1,2,2,0,0,1,.66-.12,1.53,1.53,0,0,1,1.41,1,7,7,0,0,1,.69,3.2,3.39,3.39,0,0,1-1.49,2.83,3.62,3.62,0,0,1-.65.33l-.16,0a3.51,3.51,0,0,1-2.35-.07A2.5,2.5,0,0,1,44,62.56ZM58.56,51.05h-.14a.27.27,0,0,0-.26.27h0a.27.27,0,0,0,.26.27l7.18.07a7,7,0,0,1-8.37,2.76.25.25,0,0,0-.33.17.29.29,0,0,0,0,.09.28.28,0,0,0,.19.25l5.76,1.84a8.38,8.38,0,0,1-2,1.38,5.8,5.8,0,0,1-5.49,0l0,0h0a.26.26,0,0,0-.36.12.27.27,0,0,0,.11.36h0l4.21,2.2A8.11,8.11,0,0,1,57.07,62a4.92,4.92,0,0,1-5-1.05c.05-.2.09-.4.12-.59a6.12,6.12,0,0,1,.29-1.14,8.9,8.9,0,0,1,.81-1.26,4.78,4.78,0,0,0,1.19-2.56c.07-1.39-1-2.83-1.82-4l-.28-.4a1.66,1.66,0,0,1-.22-1.1,2.56,2.56,0,0,0-.49-1.81.27.27,0,1,0-.42.33,2.05,2.05,0,0,1,.37,1.47,2.21,2.21,0,0,0,.32,1.42l.29.4c.75,1,1.78,2.45,1.72,3.65a4.44,4.44,0,0,1-1.09,2.28A8.9,8.9,0,0,0,52,59a5.69,5.69,0,0,0-.32,1.26,6.33,6.33,0,0,1-.29,1.14,5,5,0,0,1-1.2,1.87,4.48,4.48,0,0,0,.55-2A7.59,7.59,0,0,0,50,57.8a2.06,2.06,0,0,0-2.73-1.17,2.79,2.79,0,0,0-1,.56l0,0C45.54,56,44.72,55,43.13,55H43a3.44,3.44,0,0,0-3,2.17l0,0a2.79,2.79,0,0,0-1-.56,2.06,2.06,0,0,0-2.73,1.17,7.45,7.45,0,0,0-.74,3.45,4.26,4.26,0,0,0,.53,2,5.09,5.09,0,0,1-1.18-1.85,6.33,6.33,0,0,1-.29-1.14A5.41,5.41,0,0,0,34.12,59a7.83,7.83,0,0,0-.86-1.34,4.44,4.44,0,0,1-1.09-2.28c-.06-1.19,1-2.61,1.72-3.65l.29-.4a2.15,2.15,0,0,0,.32-1.42,2.05,2.05,0,0,1,.37-1.47.27.27,0,1,0-.42-.33A2.56,2.56,0,0,0,34,49.87a1.66,1.66,0,0,1-.22,1.1l-.28.4c-.84,1.16-1.89,2.6-1.82,4a4.78,4.78,0,0,0,1.19,2.56,8.42,8.42,0,0,1,.8,1.25,5.69,5.69,0,0,1,.3,1.15c0,.19.07.39.11.58-3,2.66-6.23.67-7.25-.08L31,58.63l0,0a.27.27,0,0,0,.11-.36.26.26,0,0,0-.36-.12h0l0,0a5.82,5.82,0,0,1-5.47,0,8.56,8.56,0,0,1-2-1.39L29,54.93a.26.26,0,0,0,.19-.25s0-.06,0-.09a.27.27,0,0,0-.34-.17,7,7,0,0,1-8.36-2.76l7.17-.07a.28.28,0,0,0,.27-.27h0a.28.28,0,0,0-.27-.27c-6.21.07-8.21-4.33-8.71-5.84l8.1,3a.27.27,0,0,0,.19-.51c-7.72-2.87-7.92-8.44-7.08-12.76.74,2.06,2.93,6.86,7.91,9.26a.27.27,0,0,0,.35-.1.26.26,0,0,0-.07-.35,14,14,0,0,1-3.41-4.28,14.81,14.81,0,0,1-.88-11.31C24.73,31.39,27.42,41,35.64,43.8a.2.2,0,0,1,0,.11,2,2,0,0,1-.28.76l0,.08a3.33,3.33,0,0,0-.36.84,2,2,0,0,0,.95,2l.13.13,0,0a3.05,3.05,0,0,0-.35,2.53,1.21,1.21,0,0,0,.88.63,1.15,1.15,0,0,0,.26,0,1.28,1.28,0,0,0,.47-.1c0,.34-.06.72-.13,1.16a.27.27,0,0,0,.23.3h0a.26.26,0,0,0,.26-.23c.36-2.51,0-3.61-1.42-4.89-.54-.47-.92-.86-.78-1.45a2.68,2.68,0,0,1,.31-.7l0-.08a2.54,2.54,0,0,0,.35-1,1.66,1.66,0,0,0-.67-1.36c-.35-.33-.71-.67-1.16-1.06-2.94-2.65-3.52-6.72-3.9-11-.11-1.11-.25-2.31-.39-3.48s-.28-2.35-.39-3.46c0-.47-.05-1,.29-1.27a.82.82,0,0,1,.84.06,2.89,2.89,0,0,1,.73.82L33.47,26l2,2.84a28.07,28.07,0,0,1,1.7,2.87c.28.51.56,1,.87,1.55a5.23,5.23,0,0,0,.11,1l-3.24-2.08a.28.28,0,0,0-.35,0,.27.27,0,0,0,0,.35,20.09,20.09,0,0,1,4.77,10.24.26.26,0,1,0,.52-.07A20.56,20.56,0,0,0,36,33.53l2.44,1.56a.27.27,0,0,0,.32,0,.28.28,0,0,0,.08-.31,4.56,4.56,0,0,1-.29-1.45.33.33,0,0,0,0-.14,5.17,5.17,0,0,1,1.72-3.9A16.92,16.92,0,0,0,40,35.55,16.66,16.66,0,0,0,40.88,39a14.53,14.53,0,0,1,.56,2.13l.18.87a.28.28,0,0,0,.37.18,2.33,2.33,0,0,1,2.1,0,.28.28,0,0,0,.37-.18c.07-.29.13-.58.19-.87A13.33,13.33,0,0,1,45.2,39a17.35,17.35,0,0,0,.88-3.42,16.92,16.92,0,0,0-.24-6.27,5.15,5.15,0,0,1,1.72,3.93h0a4.58,4.58,0,0,1-.29,1.55.3.3,0,0,0,.08.31.27.27,0,0,0,.32,0l2.44-1.56a20.68,20.68,0,0,0-3.84,9.22.27.27,0,0,0,.22.3h0a.27.27,0,0,0,.27-.23,20.07,20.07,0,0,1,4.76-10.24.27.27,0,0,0,0-.35.28.28,0,0,0-.35,0L48,34.26a5,5,0,0,0,.11-.94c.31-.53.6-1.06.88-1.57a28.07,28.07,0,0,1,1.7-2.87l1.94-2.83c.66-1,1.33-1.95,2-2.85a3.22,3.22,0,0,1,.73-.82.82.82,0,0,1,.84-.06c.34.23.33.8.29,1.27-.11,1.1-.25,2.3-.39,3.46s-.28,2.36-.39,3.48c-.38,4.28-1,8.35-3.9,11-.44.39-.81.73-1.15,1.06a2,2,0,0,0-.65,1v0a1.42,1.42,0,0,0,0,.37,2.54,2.54,0,0,0,.35,1l.05.08a2.68,2.68,0,0,1,.31.7c.14.59-.24,1-.78,1.45-1.46,1.28-1.78,2.38-1.42,4.89a.26.26,0,0,0,.26.23h0A.27.27,0,0,0,49,52a11.45,11.45,0,0,1-.12-1.16,1.2,1.2,0,0,0,.47.1l.25,0a1.25,1.25,0,0,0,.89-.63,3.09,3.09,0,0,0-.36-2.53l0,0,.13-.13a2,2,0,0,0,1-2,3.33,3.33,0,0,0-.36-.84l-.05-.08a2.12,2.12,0,0,1-.28-.76.24.24,0,0,1,0-.12C58.66,41,61.35,31.39,62,28.18a14.85,14.85,0,0,1-.89,11.31,14,14,0,0,1-3.41,4.28.25.25,0,0,0-.06.35.26.26,0,0,0,.34.1c5-2.4,7.17-7.2,7.91-9.26.84,4.32.64,9.89-7.08,12.76a.3.3,0,0,0-.17.26.15.15,0,0,0,0,.09.26.26,0,0,0,.34.16l8.1-3A8.61,8.61,0,0,1,58.56,51.05Z"/><path class="cls-1" d="M76.76,42.49H73.94A30.94,30.94,0,0,0,43.31,11.86V9.1a.27.27,0,1,0-.54,0v2.76A31,31,0,0,0,12.14,42.49H9.33a.27.27,0,1,0,0,.54h2.81A30.94,30.94,0,0,0,42.77,73.66v2.81a.27.27,0,1,0,.54,0V73.66A30.92,30.92,0,0,0,73.94,43h2.82a.27.27,0,0,0,0-.54ZM43.31,73.12v-2.8a.27.27,0,1,0-.54,0v2.8A30.39,30.39,0,0,1,12.68,43h2.81a.27.27,0,0,0,0-.54H12.68A30.39,30.39,0,0,1,42.77,12.4V24.1a.27.27,0,1,0,.54,0V12.4a30.4,30.4,0,0,1,30.1,30.09H70.6a.27.27,0,0,0,0,.54h2.81A30.4,30.4,0,0,1,43.31,73.12Z"/><path class="cls-1" d="M38.23,24.76a.27.27,0,0,0,.25.17l.09,0a.26.26,0,0,0,.16-.34l-2.17-5.7a.28.28,0,0,0-.35-.15.27.27,0,0,0-.15.34Z"/><path class="cls-1" d="M47.51,24.91l.09,0a.27.27,0,0,0,.25-.17L50,19.06a.26.26,0,0,0-.15-.34.27.27,0,0,0-.35.15l-2.17,5.7A.26.26,0,0,0,47.51,24.91Z"/><path class="cls-2" d="M6.26,20.83l1.15-1.76a1.48,1.48,0,0,1,.93-.71,1.63,1.63,0,0,1,1.17.34,2.06,2.06,0,0,1,.73.71,1,1,0,0,1,0,.79l0,0a1,1,0,0,1,.74-.32,2,2,0,0,1,1,.39,1.91,1.91,0,0,1,.85,1,1.44,1.44,0,0,1-.28,1.2l-1.16,1.76Zm3.1-.09a.77.77,0,0,0,.15-.33.36.36,0,0,0-.09-.26,1.48,1.48,0,0,0-.36-.3,2.16,2.16,0,0,0-.42-.22.35.35,0,0,0-.27,0,1,1,0,0,0-.24.28l-.3.46,1.23.81Zm2.17,1.39a.86.86,0,0,0,.15-.34.32.32,0,0,0-.08-.25,3,3,0,0,0-.4-.31,1.7,1.7,0,0,0-.44-.23.35.35,0,0,0-.27,0,.83.83,0,0,0-.25.27l-.31.47,1.29.85Z"/><path class="cls-2" d="M10.22,15.31,11.4,14l5.5,3.12-.82.95L15,17.35l-.9,1,.8,1-.81.93ZM14,16.8l-2.32-1.4-.05,0,1.7,2.12Z"/><path class="cls-2" d="M19.69,14.59l-1.88-1.26-.49.42,1.43,1.65-.94.81-4-4.68,1.58-1.37a1.78,1.78,0,0,1,.9-.47,1,1,0,0,1,.75.19,4.48,4.48,0,0,1,.83.79,4.18,4.18,0,0,1,.64.92,1.12,1.12,0,0,1,.07.82l2.13,1.34Zm-2.38-2.3a.34.34,0,0,0,0-.3,2.77,2.77,0,0,0-.37-.5,3.14,3.14,0,0,0-.44-.45.37.37,0,0,0-.29-.08.91.91,0,0,0-.35.21l-.41.36L16.64,13l.41-.35A.84.84,0,0,0,17.31,12.29Z"/><path class="cls-2" d="M18.42,7.74,20.19,6.6a1.37,1.37,0,0,1,1.12-.27,1.67,1.67,0,0,1,1,.78,2.09,2.09,0,0,1,.37,1,1,1,0,0,1-.29.73l0,0a1,1,0,0,1,.81,0,2,2,0,0,1,.74.75,2,2,0,0,1,.38,1.23,1.4,1.4,0,0,1-.75,1l-1.77,1.14Zm2.87,1.18a.88.88,0,0,0,.26-.24.43.43,0,0,0,0-.28A1.76,1.76,0,0,0,21.37,8a1.77,1.77,0,0,0-.3-.38.3.3,0,0,0-.24-.09,1.1,1.1,0,0,0-.34.16L20,8l.8,1.23Zm1.41,2.15a1,1,0,0,0,.28-.24.32.32,0,0,0,0-.27,2.09,2.09,0,0,0-.23-.44,1.86,1.86,0,0,0-.31-.39.33.33,0,0,0-.26-.1.86.86,0,0,0-.34.15l-.47.3.83,1.3Z"/><path class="cls-2" d="M24.31,4.29l1.63-.76,3.75,5.09-1.13.53L27.8,8.08l-1.25.57.32,1.27-1.12.52Zm2.88,2.92L25.64,5l-.06,0,.69,2.62Z"/><path class="cls-2" d="M33.26,7.49,32.07,5.58l-.62.18.62,2.09-1.19.36L29.11,2.27l2-.6a1.84,1.84,0,0,1,1-.06,1.08,1.08,0,0,1,.61.49,4.77,4.77,0,0,1,.43,1,4,4,0,0,1,.2,1.1A1.08,1.08,0,0,1,33.1,5l1.4,2.1ZM32,4.42a.36.36,0,0,0,.08-.3,2.78,2.78,0,0,0-.14-.6,3.12,3.12,0,0,0-.21-.58.34.34,0,0,0-.23-.2.82.82,0,0,0-.41,0l-.52.15.54,1.82.52-.15A.89.89,0,0,0,32,4.42Z"/><path class="cls-2" d="M36,.56,37.75.3l2.14,6-1.23.18-.43-1.24-1.35.2L36.82,6.7l-1.22.17ZM37.9,4.18l-.85-2.57H37L36.9,4.33Z"/><path class="cls-2" d="M44.62,0l1.24.08-.33,5.08,1.55.1L47,6.36l-2.79-.18Z"/><path class="cls-2" d="M50.18.57,52,.91,52,7.23,50.81,7V5.69l-1.34-.26L49,6.65l-1.21-.23Zm.65,4.06,0-2.72H50.8l-1,2.54Z"/><path class="cls-2" d="M55.12,1.67l1.14.4.22,3.42h0l1-3,1.13.39-2,5.86L55.6,8.38l-.22-3.7,0,0L54.23,7.92l-1.12-.39Z"/><path class="cls-2" d="M58.57,9.4a1.42,1.42,0,0,1-.1-1.08,9.28,9.28,0,0,1,.74-1.85,8.59,8.59,0,0,1,1-1.7,1.36,1.36,0,0,1,1-.55,2.58,2.58,0,0,1,1.29.36,5.37,5.37,0,0,1,.66.39,6.72,6.72,0,0,1,.6.44l-.45.89a10.71,10.71,0,0,0-1-.59,2.53,2.53,0,0,0-.8-.29.67.67,0,0,0-.5.32A9.14,9.14,0,0,0,60.32,7a14,14,0,0,0-.6,1.29.92.92,0,0,0-.06.59.75.75,0,0,0,.42.37,2.35,2.35,0,0,0,.4.17l.69-1.38-.51-.25.47-.93,1.52.77-1.56,3.09a6,6,0,0,1-.75-.23,7,7,0,0,1-.76-.32A2.36,2.36,0,0,1,58.57,9.4Z"/><path class="cls-2" d="M62.9,11.79a1.43,1.43,0,0,1,0-1.09,8.86,8.86,0,0,1,1-1.73,8.83,8.83,0,0,1,1.26-1.55,1.42,1.42,0,0,1,1-.42,2.6,2.6,0,0,1,1.23.53A7.15,7.15,0,0,1,68,8a5.28,5.28,0,0,1,.53.53L68,9.35c-.39-.35-.68-.58-.87-.72a2.42,2.42,0,0,0-.75-.39.64.64,0,0,0-.54.25A8.37,8.37,0,0,0,65,9.67a11.69,11.69,0,0,0-.76,1.19,1,1,0,0,0-.15.59.83.83,0,0,0,.37.42,2.34,2.34,0,0,0,.37.22l.87-1.28-.46-.32.58-.85,1.4,1-2,2.86a7,7,0,0,1-.72-.33,5.79,5.79,0,0,1-.71-.42A2.43,2.43,0,0,1,62.9,11.79Z"/><path class="cls-2" d="M66.76,14.65a1.13,1.13,0,0,1,.18-.92,11.91,11.91,0,0,1,1.11-1.38l2.31-2.56.93.84L68.7,13.48a8,8,0,0,0-.59.71.5.5,0,0,0-.12.34.82.82,0,0,0,.26.34.69.69,0,0,0,.36.21.42.42,0,0,0,.33-.14c.12-.11.34-.33.64-.67l2.58-2.85.92.83-2.31,2.56a12.75,12.75,0,0,1-1.26,1.25,1.15,1.15,0,0,1-.89.26,2.23,2.23,0,0,1-1.09-.65A2.37,2.37,0,0,1,66.76,14.65Z"/><path class="cls-2" d="M74.16,15l-.76-.88.83-.72,2.34,2.69-.84.73L75,16,71.13,19.3l-.82-.94Z"/><path class="cls-2" d="M77.65,17.54l.69,1L76.26,20l.68,1L79,19.61l.68,1-5.15,3.43-.69-1L76,21.62l-.68-1L73.19,22l-.69-1Z"/><path class="cls-2" d="M8.63,29.52l-.58,1.7a1.49,1.49,0,0,1-.53.81,1.09,1.09,0,0,1-.73.17,5.5,5.5,0,0,1-1-.26,4.34,4.34,0,0,1-.93-.41A1.09,1.09,0,0,1,4.38,31a1.48,1.48,0,0,1,.06-1l.41-1.2L2.6,28l.18-.5ZM4.92,30a1.13,1.13,0,0,0-.07.68.77.77,0,0,0,.34.4,4.06,4.06,0,0,0,.77.32,4.6,4.6,0,0,0,.81.22.72.72,0,0,0,.51-.11A1.07,1.07,0,0,0,7.64,31L8,29.87l-2.73-.93Z"/><path class="cls-2" d="M.59,35.62l2.66-.3,0-.17.25-1.27L1,33.39l.1-.52,6.08,1.2-.37,1.84a1.54,1.54,0,0,1-.4.86,1.08,1.08,0,0,1-.68.27,4.93,4.93,0,0,1-1-.11,3.7,3.7,0,0,1-1.07-.36.91.91,0,0,1-.46-.72l-2.78.32Zm3.19.22a.76.76,0,0,0,.37.36,3.23,3.23,0,0,0,.74.21,3.78,3.78,0,0,0,.78.09.63.63,0,0,0,.46-.18,1.12,1.12,0,0,0,.28-.61l.24-1.21L4,34l-.24,1.19A1.12,1.12,0,0,0,3.78,35.84Z"/><path class="cls-2" d="M.31,39.09a1.2,1.2,0,0,1,.88-.43,14,14,0,0,1,2.09,0,14.77,14.77,0,0,1,2.06.23,1.23,1.23,0,0,1,.83.53,2.38,2.38,0,0,1,.16,1.25A2.42,2.42,0,0,1,6,41.89a1.22,1.22,0,0,1-.88.43,12.93,12.93,0,0,1-2.08,0A12.48,12.48,0,0,1,1,42.08a1.19,1.19,0,0,1-.83-.53A2.45,2.45,0,0,1,0,40.31,2.39,2.39,0,0,1,.31,39.09Zm.26,2.13a.92.92,0,0,0,.66.37,13.15,13.15,0,0,0,1.87.19A13.35,13.35,0,0,0,5,41.8a.86.86,0,0,0,.69-.29,1.83,1.83,0,0,0,.2-.87,1.9,1.9,0,0,0-.1-.89c-.08-.17-.3-.29-.65-.36a14.56,14.56,0,0,0-1.88-.2,15.15,15.15,0,0,0-1.88,0,1,1,0,0,0-.69.29,1.93,1.93,0,0,0-.19.87A1.77,1.77,0,0,0,.57,41.22Z"/><path class="cls-2" d="M6.2,44.18l.11,1.42a2.59,2.59,0,0,1-.12,1.28,1.15,1.15,0,0,1-.8.55,12.49,12.49,0,0,1-2,.28,13.8,13.8,0,0,1-2,0,1.18,1.18,0,0,1-.87-.43,2.52,2.52,0,0,1-.32-1.24L0,44.67ZM.6,46a2.33,2.33,0,0,0,.21.92.86.86,0,0,0,.68.3,13,13,0,0,0,1.84-.06,11.66,11.66,0,0,0,1.82-.24.9.9,0,0,0,.63-.4,2.23,2.23,0,0,0,.06-.94l-.07-.86-5.24.42Z"/><path class="cls-2" d="M.91,50.83a1.14,1.14,0,0,1,.66-.61,9.69,9.69,0,0,1,1.68-.48L6.68,49l.12.51-3.72.81a9.12,9.12,0,0,0-1.24.34.76.76,0,0,0-.47.42,1.53,1.53,0,0,0,0,.82,1.38,1.38,0,0,0,.32.74.77.77,0,0,0,.6.19,8.22,8.22,0,0,0,1.27-.21l3.72-.81.11.52L4,53.08a10.07,10.07,0,0,1-1.72.26,1.16,1.16,0,0,1-.86-.28A2.15,2.15,0,0,1,.93,52,2.2,2.2,0,0,1,.91,50.83Z"/><path class="cls-2" d="M2.41,56.53a1.33,1.33,0,0,1,.66-.76A12.5,12.5,0,0,1,5,55a11.58,11.58,0,0,1,2-.56,1.24,1.24,0,0,1,1,.17,2.15,2.15,0,0,1,.61,1,3.65,3.65,0,0,1,.15.5,2.15,2.15,0,0,1,.06.44l-.41.15a4,4,0,0,0-.2-.83A1.9,1.9,0,0,0,7.69,55a1,1,0,0,0-.79-.1,12.71,12.71,0,0,0-1.75.53,12.47,12.47,0,0,0-1.69.7,1,1,0,0,0-.54.56,1.81,1.81,0,0,0,.15.94,4.26,4.26,0,0,0,.38.8L3,58.61a3.17,3.17,0,0,1-.23-.42,4.5,4.5,0,0,1-.2-.48A2.32,2.32,0,0,1,2.41,56.53Z"/><path class="cls-2" d="M9.29,58.73l-.61-1.28.43-.21,1.46,3-.43.21-.62-1.27L4.38,61.69l-.23-.48Z"/><path class="cls-2" d="M12.79,63.87,13.65,65a2.57,2.57,0,0,1,.59,1.14,1.2,1.2,0,0,1-.36.9,13.89,13.89,0,0,1-1.56,1.32,12.35,12.35,0,0,1-1.69,1.15,1.15,1.15,0,0,1-1,.12,2.58,2.58,0,0,1-.95-.87l-.87-1.14ZM9.08,68.45a2.21,2.21,0,0,0,.68.66.86.86,0,0,0,.73-.12,12,12,0,0,0,1.51-1,13.35,13.35,0,0,0,1.41-1.18.88.88,0,0,0,.3-.68,2.05,2.05,0,0,0-.45-.82l-.52-.69L8.56,67.76Z"/><path class="cls-2" d="M15.94,67.77l2,2-.33.33L16,68.48l-1.68,1.66,1.43,1.45-.33.33L14,70.47l-1.73,1.71,1.64,1.66-.33.33-2-2Z"/><path class="cls-2" d="M15.69,76.06a6.35,6.35,0,0,1-.52-.52l.29-.36.5.5q.28.27.48.42a2.32,2.32,0,0,0,.49.33.77.77,0,0,0,.41.09.61.61,0,0,0,.38-.18,3.24,3.24,0,0,0,.45-.49,6.27,6.27,0,0,0,.45-.62.39.39,0,0,0,0-.34,1.28,1.28,0,0,0-.3-.43l-.77-.83a.92.92,0,0,1-.27-.54.83.83,0,0,1,.12-.52,4.52,4.52,0,0,1,.46-.66,1.77,1.77,0,0,1,1.1-.78,1.76,1.76,0,0,1,1.22.48c.19.16.38.32.56.49a4.76,4.76,0,0,1,.41.44l-.28.35-.42-.43q-.25-.24-.48-.42a2.35,2.35,0,0,0-.55-.34.7.7,0,0,0-.42,0,.71.71,0,0,0-.35.19,2.11,2.11,0,0,0-.37.4,4.11,4.11,0,0,0-.38.53.46.46,0,0,0-.05.31,1.11,1.11,0,0,0,.22.34l.71.78a1.68,1.68,0,0,1,.37.54.72.72,0,0,1,0,.54,1,1,0,0,1-.17.33c-.08.13-.21.3-.39.53a3.15,3.15,0,0,1-.76.73,1,1,0,0,1-.73.15,2.14,2.14,0,0,1-.85-.45C16.09,76.42,15.89,76.25,15.69,76.06Z"/><path class="cls-2" d="M22.69,73.5l.44.28L19.74,79l-.44-.28Z"/><path class="cls-2" d="M22.44,80.4a1.33,1.33,0,0,1-.07-1,10,10,0,0,1,.8-1.89,10.46,10.46,0,0,1,1.07-1.73,1.39,1.39,0,0,1,.89-.55,2.38,2.38,0,0,1,1.18.34q.3.16.63.39a6.21,6.21,0,0,1,.54.41l-.21.39c-.15-.12-.31-.25-.5-.38a4.76,4.76,0,0,0-.46-.28,2.82,2.82,0,0,0-1-.36.89.89,0,0,0-.69.41,9.47,9.47,0,0,0-1,1.61,12,12,0,0,0-.73,1.61,1.06,1.06,0,0,0,0,.82,1.58,1.58,0,0,0,.71.6c.13.06.27.13.44.19a1.82,1.82,0,0,0,.4.13l1-2-.91-.47.21-.42,1.38.72-1.45,2.78a6.72,6.72,0,0,1-.69-.22,5.68,5.68,0,0,1-.64-.29A2.29,2.29,0,0,1,22.44,80.4Z"/><path class="cls-2" d="M29.19,77l.54.19.51,5.5h0l1.67-4.73.48.17L30.36,84l-.52-.18-.51-5.55h0L27.61,83l-.48-.17Z"/><path class="cls-2" d="M34.26,78.59l2.82.59-.1.46-2.29-.48-.48,2.31,2,.41-.09.46-2-.41-.5,2.38,2.29.47-.09.46L33,84.66Z"/><path class="cls-2" d="M41,85.79l-.62-2.61-.18,0-1.28-.09-.19,2.54-.53,0,.47-6.17,1.86.14a1.51,1.51,0,0,1,.91.3,1,1,0,0,1,.34.64,4.34,4.34,0,0,1,0,1,3.64,3.64,0,0,1-.23,1.1,1,1,0,0,1-.67.55l.66,2.72Zm-.16-3.2a.72.72,0,0,0,.31-.41,4.49,4.49,0,0,0,.12-.76,5,5,0,0,0,0-.78A.69.69,0,0,0,41,80.2a1.13,1.13,0,0,0-.64-.2l-1.23-.09L39,82.6l1.21.09A1.2,1.2,0,0,0,40.84,82.59Z"/><path class="cls-2" d="M50.39,81.83l.06.46-.77.1.37,2.8a6,6,0,0,1-.65.19,5.66,5.66,0,0,1-.72.14,2.82,2.82,0,0,1-1.23,0,1,1,0,0,1-.63-.48,2.57,2.57,0,0,1-.27-.94,2.08,2.08,0,0,1,.07-1,1.16,1.16,0,0,1,.59-.54v0a1.14,1.14,0,0,1-.67-.39,2.1,2.1,0,0,1-.32-1,2.22,2.22,0,0,1,0-.91,1.09,1.09,0,0,1,.48-.61,2.7,2.7,0,0,1,1.12-.34,7,7,0,0,1,.7,0l.69,0,.06.42a7.68,7.68,0,0,0-1.23,0,3,3,0,0,0-1,.24.73.73,0,0,0-.37.43,2.38,2.38,0,0,0,0,.76,1.7,1.7,0,0,0,.29.84.8.8,0,0,0,.81.24l.62-.09.06.46-.62.08a1.12,1.12,0,0,0-.62.23.7.7,0,0,0-.23.45,3.66,3.66,0,0,0,0,.72,1.61,1.61,0,0,0,.26.77.74.74,0,0,0,.48.31,3,3,0,0,0,.83,0,3.3,3.3,0,0,0,.87-.2L49.12,82Z"/><path class="cls-2" d="M53.73,78.08l1.7-.59a1.49,1.49,0,0,1,1-.07,1,1,0,0,1,.58.47,5.36,5.36,0,0,1,.42.94,4.91,4.91,0,0,1,.24,1,1.16,1.16,0,0,1-.16.75,1.58,1.58,0,0,1-.79.54l-1.2.41.77,2.25-.5.17Zm2.69,2.61a1.16,1.16,0,0,0,.58-.36.76.76,0,0,0,.1-.52,3.66,3.66,0,0,0-.21-.8,4.72,4.72,0,0,0-.33-.77.7.7,0,0,0-.4-.34,1.14,1.14,0,0,0-.68.07l-1.1.38.94,2.72Z"/><path class="cls-2" d="M63.32,80.76l-1.86-1.92-.16.08-1.15.57,1.14,2.29-.48.23-2.76-5.54,1.68-.83a1.47,1.47,0,0,1,.93-.21,1.08,1.08,0,0,1,.62.37,4.83,4.83,0,0,1,.51.84,3.37,3.37,0,0,1,.37,1.06.92.92,0,0,1-.29.81l2,2ZM61.54,78.1a.64.64,0,0,0,.06-.51,3.63,3.63,0,0,0-.28-.71,4.17,4.17,0,0,0-.4-.67.64.64,0,0,0-.43-.26,1.1,1.1,0,0,0-.65.15l-1.11.55,1.21,2.42L61,78.53A1.13,1.13,0,0,0,61.54,78.1Z"/><path class="cls-2" d="M66.05,79a1.2,1.2,0,0,1-.88-.44,12.28,12.28,0,0,1-1.26-1.65,12.6,12.6,0,0,1-1.07-1.79,1.24,1.24,0,0,1-.09-1,2.53,2.53,0,0,1,.89-.88,2.5,2.5,0,0,1,1.16-.5,1.19,1.19,0,0,1,.87.44,11.89,11.89,0,0,1,1.26,1.66A13,13,0,0,1,68,76.62a1.23,1.23,0,0,1,.08,1,3.41,3.41,0,0,1-2,1.38Zm1.54-1.5a.92.92,0,0,0-.11-.74,13.93,13.93,0,0,0-1-1.61,14.14,14.14,0,0,0-1.12-1.5c-.25-.27-.46-.39-.65-.38a1.85,1.85,0,0,0-.81.38,1.83,1.83,0,0,0-.65.61.91.91,0,0,0,.1.74,21.71,21.71,0,0,0,2.11,3.12.94.94,0,0,0,.66.37,1.9,1.9,0,0,0,.81-.37A1.93,1.93,0,0,0,67.59,77.48Z"/><path class="cls-2" d="M66.43,71.29l1.37-1.23a1.29,1.29,0,0,1,1.07-.42,1.79,1.79,0,0,1,1,.64,2.06,2.06,0,0,1,.5.88,1.06,1.06,0,0,1-.21.82l0,0a1,1,0,0,1,.91-.14,2.22,2.22,0,0,1,.83.62,2.1,2.1,0,0,1,.56,1.1,1.37,1.37,0,0,1-.6,1.12L70.56,75.9Zm3.15,1c.5-.45.49-1,0-1.55a1.46,1.46,0,0,0-.77-.53,1,1,0,0,0-.78.33l-.87.78L68.7,73Zm2,2.15a1,1,0,0,0,.42-.74,1.47,1.47,0,0,0-.45-.85,1.43,1.43,0,0,0-.81-.54,1,1,0,0,0-.78.31l-.89.8,1.62,1.82Z"/><path class="cls-2" d="M70,68l.35-.41,4.28,3.79L76,69.78l.36.32-1.74,2Z"/><path class="cls-2" d="M72.24,65.28l1.68-2.34.38.28-1.36,1.9,1.91,1.37L76,64.84l.38.27-1.19,1.66,2,1.41,1.36-1.9.38.27-1.68,2.34Z"/><path class="cls-2" d="M74.71,61.75l.35-.67,5.37,1.06,0,0-4-3.79.34-.66,5.5,2.85-.24.46L77.5,58.59v0l3.89,3.73-.23.43-5.28-1,0,0,4.59,2.37-.23.45Z"/><path class="cls-2" d="M84.43,54.74a6,6,0,0,1-.27.68l-.45-.12c.09-.2.17-.42.26-.66a6,6,0,0,0,.2-.6,2.79,2.79,0,0,0,.11-.59A.94.94,0,0,0,84.2,53a.72.72,0,0,0-.31-.28,4,4,0,0,0-.64-.21,5.92,5.92,0,0,0-.74-.17.41.41,0,0,0-.34.1,1.36,1.36,0,0,0-.27.45l-.46,1a1,1,0,0,1-.38.47.93.93,0,0,1-.53.09,5,5,0,0,1-.79-.16,1.82,1.82,0,0,1-1.15-.7,1.73,1.73,0,0,1,0-1.31,6.67,6.67,0,0,1,.23-.72,5.13,5.13,0,0,1,.24-.54l.43.12c-.07.15-.14.34-.22.55a4.79,4.79,0,0,0-.2.61,2.51,2.51,0,0,0-.1.63.87.87,0,0,0,.12.42,1.1,1.1,0,0,0,.31.25,3.39,3.39,0,0,0,.52.18,4.75,4.75,0,0,0,.64.13.45.45,0,0,0,.3-.08.93.93,0,0,0,.23-.33l.43-1a1.8,1.8,0,0,1,.35-.55.77.77,0,0,1,.5-.21,1.27,1.27,0,0,1,.37,0l.64.15a3.27,3.27,0,0,1,1,.41,1,1,0,0,1,.42.61,2.07,2.07,0,0,1-.07,1C84.6,54.23,84.53,54.48,84.43,54.74Z"/><path class="cls-2" d="M85.33,49.92a1.2,1.2,0,0,1-.91.36,13.14,13.14,0,0,1-2.07-.17,14.06,14.06,0,0,1-2-.4,1.21,1.21,0,0,1-.78-.59,3.4,3.4,0,0,1,.34-2.45,1.22,1.22,0,0,1,.91-.36,12.47,12.47,0,0,1,2.08.18,13.16,13.16,0,0,1,2,.39,1.19,1.19,0,0,1,.78.6,3.39,3.39,0,0,1-.34,2.44Zm-.08-2.15q-.1-.26-.63-.42A14.11,14.11,0,0,0,82.77,47a13.77,13.77,0,0,0-1.87-.17.93.93,0,0,0-.72.23,2,2,0,0,0-.26.86,1.89,1.89,0,0,0,0,.89,1,1,0,0,0,.63.42,14.11,14.11,0,0,0,1.85.34,13.9,13.9,0,0,0,1.87.17.93.93,0,0,0,.72-.23,2,2,0,0,0,.26-.85A1.94,1.94,0,0,0,85.25,47.77Z"/><path class="cls-2" d="M79.85,44.53V44l5.72.1,0-2.07h.48l0,2.62Z"/><path class="cls-2" d="M79.92,41.78l0-.55,5.29-1.82v0l-5.51-1,0-.53L85.91,39l0,.65Z"/><path class="cls-2" d="M79.39,36.67l-.57-2.83.46-.09L79.74,36l2.32-.47-.41-2,.46-.09.4,2L84.9,35l-.47-2.29.46-.1.57,2.82Z"/><path class="cls-2" d="M83.47,28,81.3,29.56l.06.17L81.77,31l2.42-.81.17.5-5.87,2-.6-1.77a1.57,1.57,0,0,1-.07-1,1.06,1.06,0,0,1,.46-.56,4,4,0,0,1,.89-.39,3.54,3.54,0,0,1,1.11-.22.94.94,0,0,1,.76.4l2.26-1.65Zm-2.88,1.39a.68.68,0,0,0-.5-.13,4.3,4.3,0,0,0-.75.18,4.61,4.61,0,0,0-.72.3.69.69,0,0,0-.31.39,1.17,1.17,0,0,0,.06.67L78.76,32l2.56-.85-.38-1.16A1.09,1.09,0,0,0,80.59,29.37Z"/></g></g></svg>