<svg xmlns="http://www.w3.org/2000/svg" viewBox="0 0 86.16 85.84"><defs><style>.cls-1{fill:#1d1d1b;}.cls-2{fill:#010101;}</style></defs><g id="Ebene_2" data-name="Ebene 2"><g id="Ebene_3" data-name="Ebene 3"><path class="cls-1" d="M67.48,44.52l-4.69,1.75a9.45,9.45,0,0,0,3.55-4.85,14.53,14.53,0,0,0-.08-7.57.26.26,0,0,0-.26-.2h0a.27.27,0,0,0-.26.2,16.74,16.74,0,0,1-6.12,8.83C61.74,40.22,65,34.84,62.24,27a.26.26,0,0,0-.51.05c0,.13-1.79,12.41-10.83,16L51,43c.34-.32.7-.66,1.14-1,3.08-2.78,3.7-7.13,4.08-11.35.1-1.1.25-2.3.38-3.46s.29-2.36.39-3.48a1.8,1.8,0,0,0-.51-1.76,1.34,1.34,0,0,0-1.43.06,3.32,3.32,0,0,0-.88,1c-.63.9-1.29,1.88-2,2.85s-1.31,1.93-1.94,2.83a31,31,0,0,0-1.73,2.92c-.15.28-.3.56-.46.84a5.56,5.56,0,0,0-2.5-3.94.27.27,0,0,0-.4.3,16.46,16.46,0,0,1-.44,10.09A15,15,0,0,0,44.16,41l-.12.55a3.13,3.13,0,0,0-.95-.18h0a3.13,3.13,0,0,0-1,.18L42,41a15,15,0,0,0-.57-2.21A16.46,16.46,0,0,1,41,28.69a.27.27,0,0,0-.4-.3,5.58,5.58,0,0,0-2.5,3.93l-.45-.83a31,31,0,0,0-1.73-2.92c-.63-.9-1.29-1.87-1.95-2.84s-1.32-1.94-2-2.84a3.32,3.32,0,0,0-.88-1,1.34,1.34,0,0,0-1.43-.06,1.8,1.8,0,0,0-.51,1.76c.1,1.12.25,2.32.39,3.48s.28,2.36.38,3.46c.37,4.22,1,8.57,4.08,11.35.44.39.8.73,1.14,1l.1.1c-9.06-3.6-10.83-15.89-10.85-16a.27.27,0,0,0-.23-.23.27.27,0,0,0-.28.18c-2.76,7.84.5,13.22,2.62,15.68a16.81,16.81,0,0,1-6.12-8.83.27.27,0,0,0-.26-.2h0a.26.26,0,0,0-.26.2c-.53,2.25-2,8.39,3.49,12.42l-4.71-1.75a.26.26,0,0,0-.35.31,9.16,9.16,0,0,0,5.89,6.25l-4.16.05a.28.28,0,0,0-.23.13.27.27,0,0,0,0,.26A8,8,0,0,0,22,54a7.14,7.14,0,0,0,3.87,1.38l-3.2,1a.31.31,0,0,0-.18.19.26.26,0,0,0,.07.25,8.21,8.21,0,0,0,5.9,2.52l-2.28,1.19a.26.26,0,0,0-.14.2.27.27,0,0,0,.09.24,8.07,8.07,0,0,0,4.63,1.78,5.3,5.3,0,0,0,3.46-1.3l0,.1a5.2,5.2,0,0,0,3.55,3.29,4.15,4.15,0,0,0,1.09.27c.16.27.31.51.47.76l.38.59a.23.23,0,0,0,.22.13h0a.28.28,0,0,0,.22-.21c0-.21.08-.41.13-.61s.11-.55.17-.84l.24-.08a3.32,3.32,0,0,0,.76-.43l.09-.05a1.36,1.36,0,0,1,.12-.12h0a2,2,0,0,1,1.3-.47,2,2,0,0,1,1.28.46l0,0,.12.11.08.05a3.32,3.32,0,0,0,.76.43l.25.09c0,.28.11.55.17.83s.09.4.13.61a.27.27,0,0,0,.22.21h0a.26.26,0,0,0,.23-.13l.37-.59.48-.76A4.38,4.38,0,0,0,48,65h0l.22-.08a5.22,5.22,0,0,0,3.61-3.31l0-.09a5.3,5.3,0,0,0,3.45,1.29A8.07,8.07,0,0,0,60,61a.27.27,0,0,0,.09-.24.26.26,0,0,0-.14-.2l-2.28-1.19c3.38.21,5.87-2.49,5.91-2.52a.27.27,0,0,0-.12-.44l-3.2-1a7.8,7.8,0,0,0,6.09-3.85.27.27,0,0,0,0-.26.28.28,0,0,0-.23-.13l-4.16-.05a9.16,9.16,0,0,0,5.89-6.25.26.26,0,0,0-.35-.31ZM40.6,64.36a3.46,3.46,0,0,1-2.31.09h0l-.23-.08a3.14,3.14,0,0,1-.61-.3A3.44,3.44,0,0,1,36,61.22a7,7,0,0,1,.7-3.19,1.52,1.52,0,0,1,1.41-1,2,2,0,0,1,.66.12,1.63,1.63,0,0,1,1.2,1,6,6,0,0,0,1.48,2.15,2.68,2.68,0,0,1,.77,2.26A2.49,2.49,0,0,1,40.6,64.36Zm5.16-6.89h0a1.78,1.78,0,0,0-1,.66,2.53,2.53,0,0,1-.42.39,2.22,2.22,0,0,1-1.27.41h0a2.22,2.22,0,0,1-1.27-.41,2.53,2.53,0,0,1-.42-.39,1.78,1.78,0,0,0-1-.66h-.05l0,0c.65-1.14,1.34-1.91,2.58-1.91h.19c1.24,0,1.93.77,2.59,1.92l0,0Zm-2.68,5.78a3.18,3.18,0,0,0-.62.07,2.78,2.78,0,0,0,.23-.65,3.19,3.19,0,0,0-.9-2.74,5.83,5.83,0,0,1-1.33-1.88,1.66,1.66,0,0,1,.53.44,2.88,2.88,0,0,0,.51.47,2.8,2.8,0,0,0,1.53.51h.09A2.8,2.8,0,0,0,44.65,59a2.88,2.88,0,0,0,.51-.47,1.66,1.66,0,0,1,.53-.44,5.83,5.83,0,0,1-1.33,1.88,3.19,3.19,0,0,0-.9,2.74,2.78,2.78,0,0,0,.23.65A3.17,3.17,0,0,0,43.08,63.25Zm.9-.7a2.68,2.68,0,0,1,.77-2.26,6,6,0,0,0,1.48-2.15,1.63,1.63,0,0,1,1.2-1,2,2,0,0,1,.66-.12,1.52,1.52,0,0,1,1.41,1,7,7,0,0,1,.7,3.19,3.42,3.42,0,0,1-1.5,2.84,3,3,0,0,1-.65.32l-.16.06a3.48,3.48,0,0,1-2.34-.08A2.49,2.49,0,0,1,44,62.55Zm14.61-11.5h-.13a.26.26,0,0,0-.27.26h0a.27.27,0,0,0,.27.27l7.17.08a7,7,0,0,1-8.36,2.76.26.26,0,0,0-.34.17.22.22,0,0,0,0,.08.26.26,0,0,0,.18.25l5.76,1.85a8.77,8.77,0,0,1-2,1.38,5.84,5.84,0,0,1-5.48,0l0,0h0a.27.27,0,1,0-.25.47l0,0,4.21,2.2A8.27,8.27,0,0,1,57.1,62a4.86,4.86,0,0,1-5-1.05l.12-.59a5,5,0,0,1,.29-1.14,7.5,7.5,0,0,1,.8-1.25,4.94,4.94,0,0,0,1.2-2.56c.07-1.39-1-2.84-1.82-4L52.38,51a1.76,1.76,0,0,1-.22-1.11,2.53,2.53,0,0,0-.49-1.8.26.26,0,1,0-.42.32,2.09,2.09,0,0,1,.38,1.47A2.17,2.17,0,0,0,52,51.28l.29.4c.75,1,1.77,2.45,1.71,3.65a4.33,4.33,0,0,1-1.09,2.27A8.68,8.68,0,0,0,52,59a6.33,6.33,0,0,0-.33,1.26,5.29,5.29,0,0,1-.29,1.14,5,5,0,0,1-1.2,1.87,4.35,4.35,0,0,0,.55-2A7.55,7.55,0,0,0,50,57.8a2.06,2.06,0,0,0-2.73-1.18,2.64,2.64,0,0,0-1,.57s0,0,0,0C45.57,56,44.76,55,43.17,55H43c-1.59,0-2.4,1.06-3,2.18,0,0,0,0,0,0a2.64,2.64,0,0,0-1-.57,2.07,2.07,0,0,0-2.73,1.18,7.55,7.55,0,0,0-.74,3.45,4.56,4.56,0,0,0,.53,2,5,5,0,0,1-1.17-1.85,5.29,5.29,0,0,1-.29-1.14,6.89,6.89,0,0,0-.33-1.28,9.52,9.52,0,0,0-.86-1.34,4.33,4.33,0,0,1-1.09-2.27c-.06-1.2,1-2.62,1.71-3.65l.29-.4a2.17,2.17,0,0,0,.32-1.43,2.09,2.09,0,0,1,.38-1.47.26.26,0,0,0-.42-.32,2.53,2.53,0,0,0-.49,1.8A1.7,1.7,0,0,1,33.77,51l-.28.39c-.84,1.16-1.89,2.61-1.82,4a4.79,4.79,0,0,0,1.2,2.56,7.86,7.86,0,0,1,.8,1.24A5.24,5.24,0,0,1,34,60.31c0,.2.07.39.12.59-3,2.65-6.23.67-7.25-.08L31,58.62l0,0a.27.27,0,1,0-.25-.47h0l0,0a5.85,5.85,0,0,1-5.47,0,8.76,8.76,0,0,1-2-1.39l5.76-1.85a.26.26,0,0,0,.18-.25.22.22,0,0,0,0-.08.26.26,0,0,0-.34-.17,7,7,0,0,1-8.36-2.76l7.18-.08a.27.27,0,0,0,.26-.27h0a.26.26,0,0,0-.27-.26c-6.21.07-8.2-4.33-8.71-5.84l8.11,3a.27.27,0,0,0,.34-.16.29.29,0,0,0,0-.09.27.27,0,0,0-.18-.25C19.55,44.85,19.36,39.27,20.2,35c.74,2.06,2.92,6.85,7.91,9.26a.27.27,0,0,0,.34-.11.27.27,0,0,0-.07-.35A13.76,13.76,0,0,1,25,39.48a14.83,14.83,0,0,1-.89-11.3c.68,3.2,3.36,12.78,11.59,15.61v.11a1.91,1.91,0,0,1-.29.77l0,.08a3,3,0,0,0-.37.84,2,2,0,0,0,1,2l.14.12,0,0a3.07,3.07,0,0,0-.35,2.54,1.29,1.29,0,0,0,.89.63l.25,0a1.2,1.2,0,0,0,.47-.1c0,.35-.06.73-.12,1.16a.26.26,0,0,0,.22.3h0a.28.28,0,0,0,.27-.23c.36-2.51,0-3.61-1.43-4.89-.54-.48-.91-.86-.78-1.45a2.88,2.88,0,0,1,.31-.7l0-.09a2.39,2.39,0,0,0,.35-1,1.64,1.64,0,0,0-.67-1.35c-.34-.33-.71-.67-1.16-1.07-2.93-2.65-3.52-6.71-3.9-11-.1-1.11-.25-2.31-.38-3.47s-.29-2.36-.39-3.47c-.05-.47-.05-1,.28-1.26a.8.8,0,0,1,.84.06,2.85,2.85,0,0,1,.73.81L33.51,26c.66,1,1.32,1.95,2,2.85a30.9,30.9,0,0,1,1.7,2.87c.27.5.56,1,.86,1.55a5,5,0,0,0,.12,1L34.9,32.17a.26.26,0,0,0-.35.06.26.26,0,0,0,0,.35,20.05,20.05,0,0,1,4.77,10.24.25.25,0,0,0,.3.22.26.26,0,0,0,.23-.3A20.68,20.68,0,0,0,36,33.52l2.44,1.57a.27.27,0,0,0,.31,0,.26.26,0,0,0,.08-.3,4.86,4.86,0,0,1-.29-1.46.19.19,0,0,0,0-.13,5.16,5.16,0,0,1,1.73-3.9A16.92,16.92,0,0,0,40,35.55,16.59,16.59,0,0,0,40.92,39a16.68,16.68,0,0,1,.55,2.13c.06.3.12.59.19.87a.28.28,0,0,0,.14.18.24.24,0,0,0,.23,0,3.16,3.16,0,0,1,1-.25,3.11,3.11,0,0,1,1,.25.24.24,0,0,0,.23,0,.25.25,0,0,0,.14-.18c.07-.28.13-.57.19-.87A15.22,15.22,0,0,1,45.24,39a17.23,17.23,0,0,0,.87-3.41,16.92,16.92,0,0,0-.24-6.27A5.13,5.13,0,0,1,47.6,33.2v0a4.89,4.89,0,0,1-.29,1.55.26.26,0,0,0,.08.3.27.27,0,0,0,.31,0l2.44-1.57a20.68,20.68,0,0,0-3.84,9.22.26.26,0,0,0,.23.3h0a.27.27,0,0,0,.26-.23A20.05,20.05,0,0,1,51.6,32.58a.26.26,0,0,0,0-.35.26.26,0,0,0-.35-.06L48,34.25a4.94,4.94,0,0,0,.12-.94c.3-.52.59-1.05.87-1.56a30.9,30.9,0,0,1,1.7-2.87C51.33,28,52,27,52.65,26s1.32-1.94,2-2.85a2.85,2.85,0,0,1,.73-.81.8.8,0,0,1,.84-.06c.33.22.33.79.28,1.26-.11,1.11-.25,2.31-.39,3.47s-.28,2.36-.38,3.47c-.38,4.29-1,8.35-3.9,11-.45.4-.82.74-1.16,1.07a1.9,1.9,0,0,0-.64,1s0,0,0,0a1.4,1.4,0,0,0,0,.36,2.39,2.39,0,0,0,.35,1l.05.09a2.88,2.88,0,0,1,.31.7c.13.59-.24,1-.78,1.45-1.47,1.28-1.79,2.38-1.43,4.89a.28.28,0,0,0,.27.23h0A.26.26,0,0,0,49,52c-.06-.43-.1-.81-.12-1.16a1.2,1.2,0,0,0,.47.1l.25,0a1.29,1.29,0,0,0,.89-.63,3.07,3.07,0,0,0-.35-2.54l0,0,.14-.12a2,2,0,0,0,1-2,3,3,0,0,0-.37-.84l0-.08a2,2,0,0,1-.29-.77v-.11C58.7,41,61.38,31.38,62.06,28.18a14.83,14.83,0,0,1-.89,11.3,13.6,13.6,0,0,1-3.4,4.28.27.27,0,0,0-.07.35.27.27,0,0,0,.34.11C63,41.81,65.22,37,66,35c.84,4.31.65,9.89-7.07,12.76a.27.27,0,0,0-.18.25.29.29,0,0,0,0,.09.27.27,0,0,0,.34.16l8.1-3A8.61,8.61,0,0,1,58.59,51.05Z"/><path class="cls-1" d="M76.79,42.49H74A30.92,30.92,0,0,0,43.34,11.86V9.09a.27.27,0,1,0-.53,0v2.77A30.92,30.92,0,0,0,12.18,42.49H9.36a.27.27,0,0,0,0,.53h2.82A30.92,30.92,0,0,0,42.81,73.65v2.82a.27.27,0,1,0,.53,0V73.65A30.92,30.92,0,0,0,74,43h2.82a.27.27,0,1,0,0-.53ZM43.34,73.12V70.31a.27.27,0,1,0-.53,0v2.81A30.4,30.4,0,0,1,12.71,43h2.81a.27.27,0,1,0,0-.53H12.71a30.42,30.42,0,0,1,30.1-30.1V24.1a.27.27,0,0,0,.53,0V12.39a30.4,30.4,0,0,1,30.1,30.1H70.63a.27.27,0,1,0,0,.53h2.81A30.39,30.39,0,0,1,43.34,73.12Z"/><path class="cls-1" d="M38.26,24.75a.26.26,0,0,0,.25.17h.1a.27.27,0,0,0,.15-.35l-2.17-5.69a.26.26,0,0,0-.34-.16.28.28,0,0,0-.16.35Z"/><path class="cls-1" d="M47.54,24.91h.1a.26.26,0,0,0,.25-.17l2.17-5.69a.28.28,0,0,0-.16-.35.26.26,0,0,0-.34.16l-2.17,5.69A.27.27,0,0,0,47.54,24.91Z"/><path class="cls-2" d="M6.26,20.88l1.15-1.77a1.45,1.45,0,0,1,.92-.7,1.69,1.69,0,0,1,1.18.33,2,2,0,0,1,.73.72,1,1,0,0,1,0,.78l0,0a1,1,0,0,1,.74-.32,2.11,2.11,0,0,1,1,.39,1.91,1.91,0,0,1,.85,1,1.44,1.44,0,0,1-.28,1.2l-1.15,1.76Zm3.1-.1a.8.8,0,0,0,.15-.32.33.33,0,0,0-.09-.26,1.48,1.48,0,0,0-.36-.3,1.71,1.71,0,0,0-.42-.22.31.31,0,0,0-.27,0,.89.89,0,0,0-.24.28l-.3.46,1.23.8Zm2.17,1.39a1.19,1.19,0,0,0,.16-.33.35.35,0,0,0-.09-.26,2.43,2.43,0,0,0-.4-.31,2.1,2.1,0,0,0-.44-.23.35.35,0,0,0-.27,0,1,1,0,0,0-.25.27l-.31.48,1.29.84Z"/><path class="cls-2" d="M10.17,15.4,11.35,14l5.51,3.11-.82.94-1.14-.66-.89,1,.81,1-.81.93ZM14,16.88l-2.33-1.39,0,0,1.7,2.11Z"/><path class="cls-2" d="M19.68,14.62,17.8,13.36l-.49.43,1.43,1.64-.94.82-4.05-4.68,1.57-1.37a1.81,1.81,0,0,1,.9-.48,1.06,1.06,0,0,1,.76.2,4.37,4.37,0,0,1,.83.78,4.55,4.55,0,0,1,.64.92,1.12,1.12,0,0,1,.06.82l2.14,1.34Zm-2.38-2.3a.37.37,0,0,0-.05-.3,3.18,3.18,0,0,0-.37-.5,3.52,3.52,0,0,0-.44-.44.35.35,0,0,0-.29-.09.93.93,0,0,0-.36.22l-.4.35L16.63,13l.41-.36A.84.84,0,0,0,17.3,12.32Z"/><path class="cls-2" d="M18.34,7.81l1.77-1.15a1.47,1.47,0,0,1,1.13-.27,1.62,1.62,0,0,1,.94.78,2,2,0,0,1,.38.95,1,1,0,0,1-.29.73l0,0a1.07,1.07,0,0,1,.81,0,1.92,1.92,0,0,1,.74.76,1.88,1.88,0,0,1,.39,1.22,1.43,1.43,0,0,1-.75,1L21.72,13ZM21.22,9a.88.88,0,0,0,.26-.24.38.38,0,0,0,0-.28,1.76,1.76,0,0,0-.21-.41,1.77,1.77,0,0,0-.3-.38.31.31,0,0,0-.25-.09,1.19,1.19,0,0,0-.33.16L20,8l.81,1.24Zm1.42,2.15a1,1,0,0,0,.28-.25.33.33,0,0,0,0-.26,1.67,1.67,0,0,0-.24-.45,2.1,2.1,0,0,0-.31-.39.35.35,0,0,0-.26-.09.77.77,0,0,0-.33.15l-.48.31.84,1.29Z"/><path class="cls-2" d="M24.23,4.34l1.63-.76,3.76,5.08-1.13.53-.76-1.07-1.24.58L26.81,10l-1.12.52Zm2.89,2.91L25.56,5l-.06,0,.7,2.62Z"/><path class="cls-2" d="M33.22,7.51,32,5.6l-.62.19L32,7.87l-1.19.36L29.06,2.3l2-.6a1.76,1.76,0,0,1,1-.07,1.08,1.08,0,0,1,.61.49,4.52,4.52,0,0,1,.44,1,4.37,4.37,0,0,1,.2,1.1,1.06,1.06,0,0,1-.27.77l1.4,2.1ZM32,4.44a.39.39,0,0,0,.08-.29,3.43,3.43,0,0,0-.14-.61A3,3,0,0,0,31.71,3a.34.34,0,0,0-.23-.2,1,1,0,0,0-.41.05L30.55,3l.55,1.82.52-.16A.89.89,0,0,0,32,4.44Z"/><path class="cls-2" d="M35.94.57,37.72.31l2.15,5.94-1.24.18-.42-1.24-1.36.2L36.8,6.7l-1.22.18Zm1.94,3.62L37,1.61H37l-.08,2.71Z"/><path class="cls-2" d="M44.75,0,46,.08l-.34,5.08,1.56.1-.08,1.11-2.79-.19Z"/><path class="cls-2" d="M50.31.58l1.77.34.08,6.33L50.93,7V5.7l-1.34-.26-.48,1.22L47.9,6.43ZM51,4.64l0-2.72h-.06L50,4.45Z"/><path class="cls-2" d="M55.21,1.69l1.14.39.22,3.42,0,0,1-3,1.12.39-2,5.85L55.69,8.4l-.21-3.71h0L54.32,7.93,53.2,7.54Z"/><path class="cls-2" d="M58.68,9.43a1.42,1.42,0,0,1-.1-1.08,9.45,9.45,0,0,1,.75-1.85,8.59,8.59,0,0,1,1.05-1.7,1.46,1.46,0,0,1,.95-.55,2.61,2.61,0,0,1,1.29.37,4.72,4.72,0,0,1,.66.39,5.52,5.52,0,0,1,.6.44l-.45.9a9.26,9.26,0,0,0-1-.6,2.58,2.58,0,0,0-.79-.29.64.64,0,0,0-.51.32,8.64,8.64,0,0,0-.74,1.28,12,12,0,0,0-.59,1.29.9.9,0,0,0-.07.6.87.87,0,0,0,.42.37,2.35,2.35,0,0,0,.4.17l.7-1.38-.51-.26.47-.92,1.51.77L61.2,10.79a6.76,6.76,0,0,1-.75-.23,5.42,5.42,0,0,1-.76-.33A2.36,2.36,0,0,1,58.68,9.43Z"/><path class="cls-2" d="M63,11.83a1.44,1.44,0,0,1,0-1.09A8.86,8.86,0,0,1,64,9a8.79,8.79,0,0,1,1.27-1.55,1.36,1.36,0,0,1,1-.41,2.67,2.67,0,0,1,1.24.53q.27.2.6.48a6.61,6.61,0,0,1,.53.52l-.57.82q-.59-.51-.87-.72a2.42,2.42,0,0,0-.75-.39.64.64,0,0,0-.54.25,8.1,8.1,0,0,0-.9,1.17,13.43,13.43,0,0,0-.77,1.2.9.9,0,0,0-.14.58.85.85,0,0,0,.36.42,3.22,3.22,0,0,0,.37.23l.88-1.28-.47-.32.59-.85,1.4,1-2,2.86a6.11,6.11,0,0,1-.71-.33,6,6,0,0,1-.72-.43A2.51,2.51,0,0,1,63,11.83Z"/><path class="cls-2" d="M66.86,14.7a1.13,1.13,0,0,1,.18-.92,11.22,11.22,0,0,1,1.12-1.38l2.31-2.55.92.84L68.8,13.54a8.33,8.33,0,0,0-.59.7.45.45,0,0,0-.12.34.76.76,0,0,0,.26.34.69.69,0,0,0,.36.22A.44.44,0,0,0,69,15c.13-.11.34-.33.65-.66l2.59-2.85.92.83-2.32,2.56a11.28,11.28,0,0,1-1.27,1.24,1.11,1.11,0,0,1-.89.27,2.4,2.4,0,0,1-1.09-.66A2.41,2.41,0,0,1,66.86,14.7Z"/><path class="cls-2" d="M74.27,15.12l-.75-.88.84-.72,2.32,2.7-.84.72-.76-.88-3.85,3.32-.81-.94Z"/><path class="cls-2" d="M77.75,17.62l.68,1L76.35,20l.68,1,2.08-1.38.69,1-5.16,3.42-.69-1,2.13-1.4-.69-1-2.12,1.4-.69-1Z"/><path class="cls-2" d="M2.6,28.59a1.23,1.23,0,0,1,1-.19,11.38,11.38,0,0,1,2,.53,12.76,12.76,0,0,1,1.91.77,1.28,1.28,0,0,1,.67.75A2.21,2.21,0,0,1,8,31.63c-.06.16-.12.32-.2.49a2.16,2.16,0,0,1-.22.39l-.42-.14a5,5,0,0,0,.36-.79,1.8,1.8,0,0,0,.13-.93,1,1,0,0,0-.55-.56,15.75,15.75,0,0,0-1.71-.66,14,14,0,0,0-1.76-.49,1,1,0,0,0-.78.11,1.92,1.92,0,0,0-.46.83,4.49,4.49,0,0,0-.19.86L1.8,30.6a3.67,3.67,0,0,1,.08-.48A4.84,4.84,0,0,1,2,29.63,2.29,2.29,0,0,1,2.6,28.59Z"/><path class="cls-2" d="M.7,35.19l2.66-.27,0-.18.26-1.26L1.16,33l.11-.52L7.33,33.7,7,35.54a1.48,1.48,0,0,1-.42.86,1,1,0,0,1-.67.25,4.35,4.35,0,0,1-1-.11,3.61,3.61,0,0,1-1.06-.37.92.92,0,0,1-.45-.73l-2.79.29Zm3.19.25a.7.7,0,0,0,.36.36A3.74,3.74,0,0,0,5,36a3.92,3.92,0,0,0,.78.1.63.63,0,0,0,.46-.18,1.09,1.09,0,0,0,.28-.61l.26-1.2-2.65-.55-.25,1.19A1.13,1.13,0,0,0,3.89,35.44Z"/><path class="cls-2" d="M6.46,38.51l-.23,2.87-.47,0L6,39,3.6,38.82l-.16,2-.47,0,.16-2-2.42-.2L.53,40.92l-.47,0L.29,38Z"/><path class="cls-2" d="M6.25,43.92l0,.65L.16,46.51l0-.54,1.8-.57-.07-2L0,43l0-.53ZM2.41,45.26l3.13-1v-.06l-3.2-.72Z"/><path class="cls-2" d="M6.13,48.09l-.21-1.41.48-.07.5,3.33L6.42,50l-.21-1.4-5.65.85-.08-.53Z"/><path class="cls-2" d="M7.17,51l.12.51L1.26,53l-.12-.51Z"/><path class="cls-2" d="M7.62,53l.19.52L3.14,56.63l0,0,5.57-.47.18.5-6.38.5-.22-.62Z"/><path class="cls-2" d="M9.47,57.93l1.27,2.59-.42.2-1-2.09-2.12,1,.9,1.82-.42.21-.9-1.82L4.57,61l1,2.1-.42.21L3.92,60.68Z"/><path class="cls-2" d="M13.23,64.4l.33.43L9,68.31,10.3,70l-.38.29-1.6-2.08Z"/><path class="cls-2" d="M15.38,67.11l2,2.09-.34.32-1.61-1.7L13.7,69.44l1.39,1.48-.34.32-1.4-1.48-1.76,1.66,1.6,1.71-.34.32-2-2.1Z"/><path class="cls-2" d="M19.06,70.71l.5.43L16.85,77l-.41-.35.8-1.71-1.52-1.29-1.55,1.08-.41-.35Zm-1.61,3.75,1.4-3,0,0-2.7,1.87Z"/><path class="cls-2" d="M21.65,72.79l1.2.78a2.64,2.64,0,0,1,.93.88,1.13,1.13,0,0,1-.05,1,11.18,11.18,0,0,1-1,1.77,13.34,13.34,0,0,1-1.2,1.65,1.17,1.17,0,0,1-.87.43,2.64,2.64,0,0,1-1.18-.5L18.26,78Zm-2,5.56a2.22,2.22,0,0,0,.86.39c.2,0,.41-.1.65-.36a12.9,12.9,0,0,0,1.07-1.49,14.24,14.24,0,0,0,.93-1.58.91.91,0,0,0,.07-.74,2.31,2.31,0,0,0-.71-.63l-.72-.47L19,77.87Z"/><path class="cls-2" d="M31,80.62l-.17.43-.72-.28-1,2.64a6.68,6.68,0,0,1-.66-.14,5.26,5.26,0,0,1-.7-.22,3,3,0,0,1-1.07-.62,1,1,0,0,1-.32-.72,2.88,2.88,0,0,1,.21-1,2,2,0,0,1,.56-.89,1.16,1.16,0,0,1,.77-.19v0a1.13,1.13,0,0,1-.4-.66,2,2,0,0,1,.17-1,2.2,2.2,0,0,1,.46-.78,1.09,1.09,0,0,1,.72-.31,2.76,2.76,0,0,1,1.14.23,6.83,6.83,0,0,1,.64.29,6.94,6.94,0,0,1,.6.35l-.15.39a7.12,7.12,0,0,0-1.09-.56,3,3,0,0,0-1-.24.71.71,0,0,0-.53.2,2.13,2.13,0,0,0-.36.67,1.85,1.85,0,0,0-.15.88c0,.25.24.44.61.59l.58.22-.16.43-.59-.23a1.18,1.18,0,0,0-.66-.09.7.7,0,0,0-.41.29A3.42,3.42,0,0,0,27,81a1.93,1.93,0,0,0-.15.8.78.78,0,0,0,.29.5,2.7,2.7,0,0,0,.73.38,3.86,3.86,0,0,0,.87.24l1-2.72Z"/><path class="cls-2" d="M35.69,78.91l1.42.23a2.58,2.58,0,0,1,1.21.42,1.15,1.15,0,0,1,.35.9,12.76,12.76,0,0,1-.21,2,12.5,12.5,0,0,1-.43,2,1.15,1.15,0,0,1-.62.75,2.62,2.62,0,0,1-1.28,0L34.72,85Zm.48,5.88a2.09,2.09,0,0,0,.95,0c.19-.06.33-.26.44-.59a12.42,12.42,0,0,0,.38-1.8,13.09,13.09,0,0,0,.2-1.82.9.9,0,0,0-.24-.7,2.33,2.33,0,0,0-.9-.29l-.85-.13-.83,5.19Z"/><path class="cls-2" d="M40.47,79.55l2.88.1,0,.47L41,80l-.09,2.35,2,.08,0,.46-2-.07-.09,2.43,2.34.08,0,.47-2.88-.1Z"/><path class="cls-2" d="M45.68,85.78c-.28,0-.52,0-.73,0l0-.47c.22,0,.46,0,.71,0a6.31,6.31,0,0,0,.64,0,2.45,2.45,0,0,0,.58-.1A.72.72,0,0,0,47.2,85a.64.64,0,0,0,.16-.39,3.68,3.68,0,0,0,0-.67,4.68,4.68,0,0,0-.1-.75.4.4,0,0,0-.2-.29,1.72,1.72,0,0,0-.52-.11l-1.12-.08a.93.93,0,0,1-.57-.21.85.85,0,0,1-.26-.46,4.27,4.27,0,0,1-.11-.8,1.8,1.8,0,0,1,.27-1.32A1.75,1.75,0,0,1,46,79.43l.75,0a4.22,4.22,0,0,1,.6,0l0,.45a5.21,5.21,0,0,0-.6,0c-.23,0-.44,0-.64,0a2.27,2.27,0,0,0-.63.12.79.79,0,0,0-.35.26.86.86,0,0,0-.13.37,5,5,0,0,0,0,.55,5.66,5.66,0,0,0,.09.64.46.46,0,0,0,.18.27.86.86,0,0,0,.39.09l1.05.09a2.11,2.11,0,0,1,.64.14.82.82,0,0,1,.36.41,1,1,0,0,1,.1.36,5.85,5.85,0,0,1,.07.65,3.13,3.13,0,0,1-.06,1.06,1,1,0,0,1-.43.6,2,2,0,0,1-.93.25Q46.1,85.78,45.68,85.78Z"/><path class="cls-2" d="M49.17,79.12l.52-.09,1.06,6.1-.51.09Z"/><path class="cls-2" d="M53.82,84.3a1.32,1.32,0,0,1-.76-.71,9.59,9.59,0,0,1-.71-1.92,10.62,10.62,0,0,1-.41-2,1.32,1.32,0,0,1,.28-1,2.29,2.29,0,0,1,1.09-.57A6.5,6.5,0,0,1,54,78a4.7,4.7,0,0,1,.68-.06l.12.42c-.2,0-.41,0-.63.07a3.43,3.43,0,0,0-.53.11,2.62,2.62,0,0,0-1,.42.9.9,0,0,0-.22.77,9.79,9.79,0,0,0,.39,1.84,14,14,0,0,0,.57,1.68,1.08,1.08,0,0,0,.55.61,1.6,1.6,0,0,0,.93,0,3.52,3.52,0,0,0,.45-.16,2.43,2.43,0,0,0,.39-.18l-.62-2.19-1,.28L54,81.06l1.5-.42.85,3c-.19.1-.41.21-.65.31a5.37,5.37,0,0,1-.67.23A2.32,2.32,0,0,1,53.82,84.3Z"/><path class="cls-2" d="M56.39,77.18l.53-.23,4.13,3.65h0l-2-4.59.47-.21L62,81.46l-.51.22L57.35,78h0l2,4.63-.47.2Z"/><path class="cls-2" d="M63.8,73.33l.6-.47,4.43,3.22,0,0-2-5.1.58-.45,3.79,4.89-.41.32-3.17-4.08,0,0,2,5-.39.29L64.86,73.8l0,0L68,77.91l-.4.31Z"/><path class="cls-2" d="M69.52,68.43,70,68l5.65,3-.37.39-1.67-.9-1.37,1.45,1,1.61-.36.38Zm3.64,1.83-2.88-1.57,0,0,1.7,2.8Z"/><path class="cls-2" d="M72,65.68l.33-.47,5.42,1.06,0,0-4.07-2.93.3-.42,5,3.62-.32.45-5.46-1.07,0,0,4.1,3-.3.41Z"/><path class="cls-2" d="M75.53,60.23l.3-.58L82.1,61l-.25.48L80,61.11l-.93,1.76,1.39,1.29-.25.46Zm4,.77-3.2-.73,0,0,2.4,2.22Z"/><path class="cls-2" d="M83,58.49a1.37,1.37,0,0,1-1,.2,10.45,10.45,0,0,1-2-.57,9,9,0,0,1-1.85-.84,1.31,1.31,0,0,1-.66-.81,2.32,2.32,0,0,1,.19-1.21,6.45,6.45,0,0,1,.3-.68,4,4,0,0,1,.35-.58l.41.15a5.67,5.67,0,0,0-.31.55c-.1.2-.18.36-.23.49a2.79,2.79,0,0,0-.23,1,.9.9,0,0,0,.5.63,8.7,8.7,0,0,0,1.71.76,11.22,11.22,0,0,0,1.7.53,1.12,1.12,0,0,0,.82-.08,1.64,1.64,0,0,0,.5-.78c0-.14.09-.29.14-.46a2,2,0,0,0,.07-.42l-2.13-.79-.36,1-.44-.16L81,55l3,1.08a5.4,5.4,0,0,1-.13.71c-.07.26-.13.48-.2.67A2.4,2.4,0,0,1,83,58.49Z"/><path class="cls-2" d="M78.71,52.23l.64-2.81.46.1-.52,2.29,2.3.52.45-2,.46.11-.46,2,2.37.54.52-2.28.46.1-.64,2.81Z"/><path class="cls-2" d="M79.64,47.85l.06-.75L85.05,46v0L79.93,44l0-.73,6.18.45,0,.52L81,43.84v0l5,1.9,0,.48L80.7,47.38v0l5.15.39,0,.5Z"/><path class="cls-2" d="M79.9,41.21l-.22-2.87.47,0,.18,2.33,2.35-.18-.16-2,.47,0,.15,2,2.43-.19-.18-2.33.47,0,.22,2.87Z"/><path class="cls-2" d="M79.45,36.69l-.12-.56,4.42-3.3v0l-4.9,1.05-.11-.5L84.79,32l.12.55-4.46,3.33v0l5-1.06.11.5Z"/><path class="cls-2" d="M78.35,30.57l.47,1.34-.45.16L77.25,28.9l.45-.16.47,1.33,5.39-1.9.18.5Z"/></g></g></svg>