<svg xmlns="http://www.w3.org/2000/svg" viewBox="0 0 1200 857"><defs><style>.cls-1{fill:#efefef;}.cls-2{fill:#c93;}.cls-3{fill:none;stroke:#000;stroke-linecap:round;stroke-width:5px;}.cls-4{fill:#ffffff;}</style></defs><g id="hg"><rect class="cls-4 hg" width="1200" height="857"/></g><g id="wolpertinger"><path class="cls-2 wolpertinger" d="M781.6,443.52a2,2,0,0,0-2.6-2.26l-34.4,12.8c12.9-9.5,21.63-21.39,26.06-35.55,6.37-20.37,2.72-41.42-.58-55.49a2,2,0,0,0-1.9-1.51h0a2,2,0,0,0-1.9,1.5c-.11.45-10.25,40.58-44.9,64.72,15.53-18,39.45-57.46,19.22-115a2,2,0,0,0-2-1.3,2,2,0,0,0-1.75,1.69c-.12.93-13.09,91-79.44,117.46.22-.23.45-.45.69-.68,2.48-2.38,5.14-4.84,8.39-7.74C689,401.82,693.59,369.9,696.33,339c.77-8.13,1.82-16.92,2.83-25.42s2.07-17.33,2.85-25.5c.43-4.51.39-10.05-3.76-12.89-3.3-2.26-7.66-1.43-10.5.41s-4.77,4.6-6.46,7c-4.6,6.63-9.47,13.77-14.33,20.91s-9.66,14.18-14.24,20.77A225,225,0,0,0,640,345.69c-1.1,2-2.22,4.09-3.37,6.16C635,340.2,628.39,329.2,618.29,323a2,2,0,0,0-2.92,2.19,120.93,120.93,0,0,1-3.21,74,110,110,0,0,0-4.23,16.2c-.28,1.35-.56,2.71-.85,4.05a25.41,25.41,0,0,0-7-1.32h-.18a25.41,25.41,0,0,0-7,1.32c-.29-1.34-.57-2.7-.85-4.05a111.26,111.26,0,0,0-4.24-16.2,122.07,122.07,0,0,1-6.22-24.28,119.75,119.75,0,0,1,3-49.72A2,2,0,0,0,581.7,323c-10.08,6.24-16.63,17.19-18.33,28.81-1.14-2.05-2.25-4.08-3.33-6.07a221.71,221.71,0,0,0-12.71-21.41c-4.58-6.6-9.43-13.71-14.27-20.83s-9.7-14.24-14.3-20.85c-1.69-2.44-3.61-5.21-6.45-7s-7.21-2.68-10.51-.41c-4.14,2.84-4.18,8.38-3.76,12.89.78,8.18,1.84,17,2.85,25.53s2.06,17.27,2.83,25.37c2.74,31,7.3,62.88,29.89,83.24,3.25,2.9,5.92,5.36,8.39,7.74l.74.72c-66.45-26.4-79.43-116.57-79.55-117.5a2,2,0,0,0-3.8-.39c-20.22,57.52,3.7,97,19.23,115C444,403.59,433.83,363.46,433.72,363a2,2,0,0,0-1.91-1.5h0a2,2,0,0,0-1.9,1.51c-3.88,16.51-14.45,61.55,25.61,91.09L421,441.26a2,2,0,0,0-2,.36,1.93,1.93,0,0,0-.63,1.9c.09.42,8.12,34.5,43.2,45.89l-30.5.31a2,2,0,0,0-1.66,1,1.94,1.94,0,0,0-.06,1.91,58.17,58.17,0,0,0,16.27,18.13A52.08,52.08,0,0,0,474,520.84l-23.48,7.52a2,2,0,0,0-.86,3.18c.23.25,18.51,20.05,43.34,18.48l-16.73,8.73a2,2,0,0,0-1,1.51,1.94,1.94,0,0,0,.67,1.71c.22.2,15.39,13.07,34,13.07,8.12,0,16.89-2.47,25.34-9.52.09.24.16.49.26.73,5.85,14.33,13.78,19.83,26.06,24.16a29.68,29.68,0,0,0,8,1.93c1.18,2,2.3,3.79,3.47,5.62.88,1.38,1.78,2.78,2.72,4.34a2,2,0,0,0,1.68,1l.34,0a2,2,0,0,0,1.58-1.54c.32-1.56.64-3,1-4.48.44-2,.87-4,1.27-6.12.61-.2,1.22-.39,1.81-.62a25.06,25.06,0,0,0,5.51-3.12,2.19,2.19,0,0,0,.67-.43,10.88,10.88,0,0,1,.94-.86l0,0a14.82,14.82,0,0,1,18.88-.09l.24.22c.29.25.58.5.85.78a2.14,2.14,0,0,0,.66.43,24.83,24.83,0,0,0,5.51,3.12c.61.24,1.23.44,1.85.64.4,2.09.83,4.08,1.26,6.1.32,1.45.64,2.92,1,4.48a2,2,0,0,0,1.59,1.54,1.87,1.87,0,0,0,.34,0,2,2,0,0,0,1.67-1c1-1.56,1.84-3,2.72-4.34,1.18-1.83,2.29-3.59,3.48-5.63a30.16,30.16,0,0,0,5.89-1.19h0l.09,0c.54-.17,1.08-.35,1.61-.55,12.5-4.36,20.54-9.82,26.45-24.3.1-.23.16-.46.25-.69,8.44,7,17.18,9.48,25.28,9.48,18.58,0,33.75-12.87,34-13.07a1.94,1.94,0,0,0,.67-1.71,2,2,0,0,0-1-1.51L707,550c24.82,1.56,43.11-18.23,43.34-18.48a2,2,0,0,0,.44-1.82,2,2,0,0,0-1.3-1.36L726,520.84c30.39-1.6,44.49-27.92,44.66-28.25a1.94,1.94,0,0,0-.06-1.91,2,2,0,0,0-1.66-1l-30.51-.31C773.48,478,781.5,443.94,781.6,443.52Zm-188.28,130a18.26,18.26,0,0,1-11.45,13.28,25.73,25.73,0,0,1-17,.61l0,0c-.59-.19-1.14-.39-1.69-.58a23,23,0,0,1-4.45-2.26c-6.84-4.55-10.53-11.55-11-20.8a51.29,51.29,0,0,1,5.07-23.45c2.3-4.91,5.89-7.46,10.37-7.46a14.73,14.73,0,0,1,4.83.88c4.47,1.54,7.2,3.19,8.83,7.43,2.61,6.8,6,10.67,10.84,15.8C592.27,561.78,594.47,568.29,593.32,573.54ZM580.18,536.2a2.92,2.92,0,0,1,.18-.31c4.79-8.4,9.84-14,19-14h1.34c9.12,0,14.18,5.65,19,14.13a1.18,1.18,0,0,1,.14.23l-.16,0-.19,0c-3.24.68-5.27,2.88-7.06,4.82a18.48,18.48,0,0,1-3.06,2.86,16.2,16.2,0,0,1-9.3,3H600a16.13,16.13,0,0,1-9.3-3,18.48,18.48,0,0,1-3.06-2.86c-1.79-1.94-3.82-4.14-7.06-4.82l-.19,0ZM600,578.64a18.74,18.74,0,0,0-4.5.56,22.65,22.65,0,0,0,1.65-4.82c1.42-6.49-1.17-14.38-6.6-20.11-4.48-4.72-7.42-8.1-9.73-13.78a12.71,12.71,0,0,1,3.89,3.24,21.55,21.55,0,0,0,3.76,3.46,20.35,20.35,0,0,0,11.22,3.7h.61a20.35,20.35,0,0,0,11.22-3.7,21.55,21.55,0,0,0,3.76-3.46,12.71,12.71,0,0,1,3.89-3.24c-2.32,5.68-5.25,9.06-9.73,13.78-5.43,5.73-8,13.62-6.61,20.11a23.22,23.22,0,0,0,1.65,4.82A18.58,18.58,0,0,0,600,578.64Zm41.25,5.93a23.57,23.57,0,0,1-4.76,2.39l-1.18.4a25.69,25.69,0,0,1-17.19-.54,18.3,18.3,0,0,1-11.46-13.28c-1.15-5.25,1.06-11.76,5.62-16.58,4.86-5.12,8.24-9,10.85-15.79,1.62-4.24,4.35-5.89,8.83-7.43a14.73,14.73,0,0,1,4.83-.88c4.48,0,8.07,2.55,10.36,7.46a51.18,51.18,0,0,1,5.08,23.45C651.78,573,648.09,580,641.25,584.57Zm72.57-95.43h-1a2,2,0,0,0-2,1.94v0a2,2,0,0,0,1.94,2l52.63.55c-5.57,8.46-24.85,31.92-61.35,20.24a2,2,0,0,0-2.46,1.27,1.8,1.8,0,0,0-.1.6,1.94,1.94,0,0,0,1.37,1.86l42.25,13.52a63.53,63.53,0,0,1-14.81,10.13c-13.75,6.71-27.29,6.7-40.26,0l-.24-.13h0a2,2,0,1,0-1.82,3.47l.26.14,30.89,16.12a59.68,59.68,0,0,1-16.29,8.31c-13.87,4.4-26.24,1.8-36.83-7.68.34-1.45.61-2.9.87-4.33a41.66,41.66,0,0,1,2.12-8.37,59.36,59.36,0,0,1,5.92-9.19c4.11-5.62,8.37-11.44,8.74-18.8.52-10.18-7.16-20.78-13.33-29.3l-2.08-2.9c-1.74-2.46-1.69-5.08-1.64-8.11.07-3.93.15-8.39-3.57-13.23a2,2,0,0,0-3.11,2.4c2.88,3.74,2.82,7.15,2.76,10.76-.06,3.41-.12,6.94,2.36,10.45l2.11,2.93c5.5,7.6,13,18,12.59,26.8-.32,6.19-4,11.29-8,16.68a62.36,62.36,0,0,0-6.34,9.92,45.34,45.34,0,0,0-2.4,9.25,41.2,41.2,0,0,1-2.12,8.37c-2.44,6-5.09,10.29-8.79,13.7a32.13,32.13,0,0,0,4-14.51,55,55,0,0,0-5.43-25.29c-3.92-8.4-11.4-11.63-20-8.64a20.16,20.16,0,0,0-7.51,4.14c0-.08-.08-.15-.12-.22-4.73-8.29-10.71-16-22.37-16h-1.36c-11.65.05-17.63,7.74-22.31,16-.07.1-.11.19-.17.29a20.12,20.12,0,0,0-7.52-4.14c-8.62-3-16.11.24-20,8.64A55.15,55.15,0,0,0,543.84,564a32.57,32.57,0,0,0,3.91,14.37c-3.61-3.4-6.22-7.67-8.63-13.56A42.21,42.21,0,0,1,537,556.4a45.2,45.2,0,0,0-2.44-9.34,63.25,63.25,0,0,0-6.29-9.83c-3.95-5.39-7.68-10.49-8-16.68-.45-8.8,7.08-19.2,12.58-26.8.74-1,1.45-2,2.11-2.93,2.49-3.51,2.42-7,2.36-10.45-.06-3.61-.12-7,2.76-10.76a2,2,0,0,0-3.1-2.4c-3.73,4.84-3.65,9.3-3.58,13.23.06,3,.1,5.65-1.64,8.11-.65.93-1.36,1.9-2.09,2.91-6.16,8.51-13.83,19.12-13.32,29.29.37,7.36,4.63,13.18,8.74,18.8a58.93,58.93,0,0,1,5.88,9.1,41.44,41.44,0,0,1,2.16,8.46c.26,1.41.53,2.85.86,4.28-21.71,19.5-45.71,4.92-53.19-.57l30.9-16.13.27-.14a2,2,0,0,0-1.82-3.47h0l-.24.13c-12.93,6.7-26.43,6.73-40.15.08a64.22,64.22,0,0,1-14.92-10.19l42.25-13.52a2,2,0,0,0,1.36-1.86,1.79,1.79,0,0,0-.09-.6,2,2,0,0,0-2.46-1.27c-36.49,11.67-55.78-11.78-61.35-20.24l52.63-.55a2,2,0,0,0,1.94-2v0a2,2,0,0,0-2-1.94c-45.53.5-60.18-31.77-63.88-42.85l59.45,22.12a2,2,0,0,0,2.52-1.16,2,2,0,0,0,.12-.68,2,2,0,0,0-1.27-1.84c-56.64-21.07-58.07-62-51.9-93.63,5.41,15.11,21.46,50.29,58,67.92a2,2,0,0,0,2.52-.74,2,2,0,0,0-.49-2.59c-.14-.1-14.36-11-25-31.39-9.18-17.6-17.37-45.89-6.51-82.91,5,23.5,24.67,93.76,85,114.52a5.47,5.47,0,0,1,0,.81,14.33,14.33,0,0,1-2.09,5.61l-.33.6a23.31,23.31,0,0,0-2.68,6.15c-1.58,7,3.35,11.3,7,14.46.36.3.67.61,1,.91l-.16.29c-2.6,4.57-5.43,13.29-2.6,18.6a9.2,9.2,0,0,0,6.51,4.62,9.74,9.74,0,0,0,1.85.18,8.8,8.8,0,0,0,3.45-.72c-.14,2.53-.44,5.33-.9,8.5a2,2,0,0,0,1.66,2.21,1.42,1.42,0,0,0,.29,0,2,2,0,0,0,1.93-1.68c2.65-18.41.3-26.46-10.44-35.88-4-3.48-6.71-6.29-5.72-10.64a20.34,20.34,0,0,1,2.28-5.12l.34-.61a17.94,17.94,0,0,0,2.57-7.2c.37-4.85-2.56-7.67-4.92-9.93s-5.21-4.9-8.49-7.83c-21.54-19.41-25.82-49.23-28.6-80.67-.78-8.17-1.83-17-2.84-25.48s-2.07-17.31-2.84-25.44c-.33-3.44-.39-7.61,2.07-9.29,1.8-1.24,4.46-.62,6.16.47,2.19,1.42,3.8,3.74,5.36,6,4.59,6.61,9.44,13.72,14.28,20.83s9.7,14.24,14.29,20.86a216.59,216.59,0,0,1,12.48,21c2,3.71,4.11,7.54,6.35,11.38a38.55,38.55,0,0,0,.83,7L540,350.7a2,2,0,0,0-2.53,2.95,147.22,147.22,0,0,1,35,75.14,2,2,0,1,0,3.88-.58,151.48,151.48,0,0,0-28.17-67.63l17.91,11.5a2,2,0,0,0,2.29-.13,1.94,1.94,0,0,0,.6-2.21,34.32,34.32,0,0,1-2.12-10.7,2,2,0,0,0,0-1,37.83,37.83,0,0,1,12.64-28.61,125.11,125.11,0,0,0,4.68,71.06,106.68,106.68,0,0,1,4.07,15.63c.44,2.14.88,4.26,1.37,6.36a2,2,0,0,0,1,1.31,2,2,0,0,0,1.67,0,16.95,16.95,0,0,1,15.4,0,2,2,0,0,0,1.67,0,1.94,1.94,0,0,0,1-1.31c.49-2.1.93-4.22,1.37-6.36a106.68,106.68,0,0,1,4.07-15.63,125.11,125.11,0,0,0,4.68-71.06,37.83,37.83,0,0,1,12.64,28.79.4.4,0,0,1,0,.11,34.34,34.34,0,0,1-2.12,11.4,1.94,1.94,0,0,0,.6,2.21,2,2,0,0,0,2.29.13l17.91-11.5a151.37,151.37,0,0,0-28.17,67.63,2,2,0,0,0,1.65,2.23l.29,0a2,2,0,0,0,1.93-1.67,147.32,147.32,0,0,1,35-75.14A2,2,0,0,0,660,350.7L636.22,366a38.13,38.13,0,0,0,.82-6.9c2.27-3.87,4.38-7.74,6.42-11.49a217.79,217.79,0,0,1,12.48-21c4.58-6.6,9.42-13.7,14.26-20.81s9.71-14.25,14.31-20.88c1.56-2.24,3.17-4.56,5.36-6,1.7-1.09,4.36-1.71,6.17-.47,2.45,1.68,2.39,5.85,2.07,9.29-.78,8.12-1.83,16.91-2.84,25.41s-2.07,17.33-2.85,25.52c-2.78,31.43-7.06,61.25-28.59,80.66-3.29,2.93-6,5.42-8.49,7.83-1.86,1.78-4,3.91-4.72,7.08a1,1,0,0,0,0,.17,10,10,0,0,0-.18,2.68,18,18,0,0,0,2.57,7.2l.34.61A20.34,20.34,0,0,1,655.6,450c1,4.35-1.75,7.16-5.72,10.64-10.74,9.42-13.08,17.47-10.44,35.88a2,2,0,0,0,1.94,1.68,1.37,1.37,0,0,0,.28,0,2,2,0,0,0,1.66-2.21c-.45-3.17-.76-6-.89-8.5a8.75,8.75,0,0,0,3.44.72,9.74,9.74,0,0,0,1.85-.18,9.2,9.2,0,0,0,6.51-4.62c2.83-5.31,0-14-2.59-18.6l-.17-.29c.33-.3.65-.61,1-.91,3.6-3.16,8.54-7.49,6.95-14.46a23.29,23.29,0,0,0-2.67-6.15l-.33-.6a14.67,14.67,0,0,1-2.1-5.61,7.66,7.66,0,0,1,0-.83c60.28-20.79,80-91,84.94-114.5,10.86,37,2.67,65.31-6.51,82.91-10.62,20.38-24.84,31.29-25,31.39a2,2,0,0,0,2,3.33c36.55-17.63,52.6-52.81,58-67.92,6.17,31.68,4.74,72.56-51.9,93.63a2,2,0,0,0-1.28,1.84,1.79,1.79,0,0,0,.13.68,2,2,0,0,0,2.52,1.16l59.39-22.1C772.85,457.27,757.94,489.14,713.82,489.14Z"/><path class="cls-2 wolpertinger" d="M564.69,296.26a2,2,0,0,0,1.83,1.26,1.89,1.89,0,0,0,.7-.13,2,2,0,0,0,1.14-2.53l-15.91-41.77a2,2,0,0,0-3.67,1.4Z"/><path class="cls-2 wolpertinger" d="M632.77,297.39a1.87,1.87,0,0,0,.69.13,2,2,0,0,0,1.84-1.26l15.9-41.77a2,2,0,0,0-3.66-1.4l-15.91,41.77A2,2,0,0,0,632.77,297.39Z"/><path class="cls-2 wolpertinger" d="M600,293.67a1.94,1.94,0,0,0,2-1.94v-45.6a2,2,0,0,0-3.9,0v45.6A1.94,1.94,0,0,0,600,293.67Z"/></g><g id="target"><path class="cls-3 target" d="M600,564.92A136.42,136.42,0,1,1,736.42,428.5,136.42,136.42,0,0,1,600,564.92ZM824.76,428.5c0-124.13-100.63-224.76-224.76-224.76S375.23,304.37,375.23,428.5,475.86,653.26,600,653.26,824.76,552.63,824.76,428.5ZM617,428.5a17,17,0,1,0-17,16.95A17,17,0,0,0,617,428.5Zm-17-249V366.41m0,124.18V677.5m-249-249H537.91m124.18,0H849"/></g><g id="textline" class="cls-4 textline"><path d="M298.34,247.39l9.45-14.45c2.19-3.34,4.7-5.26,7.57-5.77s6.08.4,9.66,2.75c3,2,5,3.92,5.94,5.87a8.2,8.2,0,0,1,.31,6.42l.25.16a8.63,8.63,0,0,1,6.12-2.62c2.14.06,4.82,1.13,8,3.23q5.63,3.68,6.94,7.93c.87,2.84.11,6.11-2.32,9.81l-9.45,14.46Zm25.43-.74A6.53,6.53,0,0,0,325,244a2.89,2.89,0,0,0-.71-2.15,12.5,12.5,0,0,0-2.94-2.44,14.61,14.61,0,0,0-3.48-1.83,2.49,2.49,0,0,0-2.14.18,7.63,7.63,0,0,0-2,2.28l-2.47,3.77,10.13,6.63Zm17.75,11.43a7.52,7.52,0,0,0,1.29-2.78,2.58,2.58,0,0,0-.72-2.06,16.43,16.43,0,0,0-3.23-2.55,15.55,15.55,0,0,0-3.62-1.88A2.79,2.79,0,0,0,333,249a6.89,6.89,0,0,0-2,2.2l-2.54,3.89L339,262Z"/><path d="M330.78,202.13,340.49,191l45.09,25.59-6.75,7.72-9.26-5.45-7.38,8.45,6.62,8.45-6.64,7.61Zm31.37,12.22-19.08-11.48-.34.39,13.93,17.37Z"/><path d="M408.44,196.23l-15.36-10.34-4,3.48,11.67,13.52L393,209.54l-33.19-38.42,13-11.2c2.72-2.34,5.17-3.65,7.35-3.91a8.89,8.89,0,0,1,6.21,1.61,37.33,37.33,0,0,1,6.81,6.46,34.47,34.47,0,0,1,5.2,7.55,9,9,0,0,1,.56,6.69l17.51,11ZM389,177.35a3.1,3.1,0,0,0-.39-2.48,27.92,27.92,0,0,0-3.08-4.07,27.44,27.44,0,0,0-3.59-3.65,3,3,0,0,0-2.37-.72,7.33,7.33,0,0,0-2.9,1.78l-3.36,2.89,10.18,11.79,3.35-2.89A6.92,6.92,0,0,0,389,177.35Z"/><path d="M398,140.05l14.5-9.37q5-3.24,9.26-2.2t7.72,6.44c1.94,3,3,5.61,3,7.78a8.31,8.31,0,0,1-2.32,6l.16.24a8.64,8.64,0,0,1,6.65.1c1.93.91,3.94,3,6,6.21q3.65,5.64,3.12,10.07t-6.1,8l-14.52,9.37Zm23.53,9.66a6.56,6.56,0,0,0,2.17-2,2.89,2.89,0,0,0,.21-2.25,11.92,11.92,0,0,0-1.69-3.44,14.62,14.62,0,0,0-2.43-3.08,2.46,2.46,0,0,0-2-.71,7.92,7.92,0,0,0-2.79,1.27L411.22,142l6.57,10.17Zm11.58,17.65a7.49,7.49,0,0,0,2.3-2,2.56,2.56,0,0,0,.18-2.18,16.52,16.52,0,0,0-1.92-3.64,15.33,15.33,0,0,0-2.53-3.19,2.79,2.79,0,0,0-2.13-.77,6.81,6.81,0,0,0-2.74,1.19l-3.91,2.52,6.85,10.61Z"/><path d="M446.37,111.74l13.39-6.19,30.72,41.74-9.31,4.3-6.23-8.74-10.19,4.69L467.36,158l-9.17,4.24Zm23.64,24-12.74-18.26-.47.21,5.64,21.55Z"/><path d="M519.79,138,510,122.32l-5.1,1.52L510,141l-9.76,2.92L485.75,95.21l16.41-4.9c3.44-1,6.21-1.21,8.3-.56a9,9,0,0,1,5,4,37.22,37.22,0,0,1,3.56,8.68,34.79,34.79,0,0,1,1.65,9,9,9,0,0,1-2.24,6.33L529.9,135Zm-10-25.2a3.07,3.07,0,0,0,.66-2.43,27.45,27.45,0,0,0-1.13-5,29.45,29.45,0,0,0-1.77-4.78A2.93,2.93,0,0,0,505.64,99a7.41,7.41,0,0,0-3.38.42L498,100.71l4.45,14.92,4.25-1.27A6.93,6.93,0,0,0,509.76,112.84Z"/><path d="M542,81.18l14.62-2.11,17.58,48.76L564,129.31l-3.48-10.17-11.11,1.61L549,131.49l-10,1.44Zm15.87,29.7-7-21.13-.51.08-.72,22.25Z"/><path d="M612.88,76.58l10.16.66-2.7,41.62,12.75.82-.59,9.06-22.91-1.48Z"/><path d="M658.49,81.28,673,84l.76,51.82L663.67,134V123.2l-11-2.09-3.91,10-10-1.89Zm5.34,33.24.24-22.27-.51-.09L655.62,113Z"/><path d="M699,90.31l9.36,3.21,1.79,28.06.35.13,8.4-24.59,9.22,3.15-16.42,48.05-8.73-3-1.77-30.41-.36-.12-9.11,26.69-9.15-3.14Z"/><path d="M727.29,153.68q-2.07-3.44-.82-8.88t6.12-15.14q4.9-9.75,8.56-14t7.8-4.51q4.14-.27,10.61,3A52.35,52.35,0,0,1,765,117.3a46.38,46.38,0,0,1,4.89,3.65l-3.68,7.32a86.48,86.48,0,0,0-7.88-4.87c-3-1.49-5.15-2.28-6.5-2.35s-2.71.8-4.11,2.6a72.73,72.73,0,0,0-6,10.55,113.54,113.54,0,0,0-4.86,10.57c-.79,2.16-1,3.8-.52,4.9s1.58,2.12,3.42,3.05a24.46,24.46,0,0,0,3.27,1.39l5.69-11.35-4.14-2.08,3.81-7.59,12.46,6.27L748,164.74a52.14,52.14,0,0,1-6.16-1.85,56.52,56.52,0,0,1-6.28-2.66Q729.37,157.11,727.29,153.68Z"/><path d="M762.78,173.22q-1.57-3.67.38-8.91t8.1-14.18q6.16-9,10.35-12.72T790,134q4.14.28,10.11,4.37a52.81,52.81,0,0,1,4.92,3.86,45.78,45.78,0,0,1,4.36,4.28l-4.62,6.75a87.17,87.17,0,0,0-7.16-5.88c-2.77-1.89-4.81-3-6.13-3.2s-2.79.43-4.43,2a73.24,73.24,0,0,0-7.4,9.64q-4.62,6.76-6.23,9.82t-1.18,4.79q.43,1.73,3,3.48a23.26,23.26,0,0,0,3,1.81l7.17-10.48-3.84-2.62,4.8-7,11.51,7.87-16,23.46a53,53,0,0,1-5.86-2.68,56.06,56.06,0,0,1-5.86-3.47C766.28,178.21,763.85,175.68,762.78,173.22Z"/><path d="M794.48,196.7a9.28,9.28,0,0,1,1.45-7.5,91.53,91.53,0,0,1,9.14-11.33l19-21,7.55,6.82-21.17,23.44a70.76,70.76,0,0,0-4.88,5.79,3.73,3.73,0,0,0-.93,2.79,6.11,6.11,0,0,0,2.1,2.79,6,6,0,0,0,2.93,1.76,3.82,3.82,0,0,0,2.69-1.21,73.69,73.69,0,0,0,5.27-5.44l21.16-23.43,7.57,6.82-19,21A90.85,90.85,0,0,1,817,208.25a9.32,9.32,0,0,1-7.31,2.2c-2.47-.4-5.44-2.18-9-5.34S795.13,199.1,794.48,196.7Z"/><path d="M855.12,199.84l-6.23-7.2,6.86-5.95,19.14,22.1L868,214.73l-6.24-7.2-31.52,27.31-6.66-7.7Z"/><path d="M883.82,220.46l5.64,8.47-17.08,11.38,5.6,8.42,17.08-11.37,5.65,8.47L858.45,274l-5.65-8.48,17.38-11.58-5.61-8.42-17.38,11.58-5.64-8.48Z"/><path d="M317.81,318.67l-4.78,14c-1.09,3.21-2.55,5.41-4.35,6.58a8.79,8.79,0,0,1-6,1.39,41.85,41.85,0,0,1-8.18-2.07,38.81,38.81,0,0,1-7.59-3.36,9.35,9.35,0,0,1-4-4.83q-1.12-3.08.49-7.82l3.37-9.86-18.44-6.3,1.41-4.11Zm-30.47,4.26c-.8,2.33-1,4.17-.53,5.55a5.91,5.91,0,0,0,2.78,3.29,37.6,37.6,0,0,0,6.3,2.66,37,37,0,0,0,6.61,1.75,5.79,5.79,0,0,0,4.21-.91q1.79-1.22,3-4.7l3.08-9-22.35-7.64Z"/><path d="M251.83,368.7l21.84-2.44.29-1.45L276,354.45l-20.56-4.06.84-4.27L306.11,356l-3,15c-.66,3.33-1.78,5.7-3.36,7.08a8.55,8.55,0,0,1-5.51,2.19,37.18,37.18,0,0,1-8-.87,29.63,29.63,0,0,1-8.75-2.93,7.54,7.54,0,0,1-3.79-5.94l-22.79,2.63ZM278,370.5a5.8,5.8,0,0,0,3,2.93,29.56,29.56,0,0,0,6.09,1.73,33,33,0,0,0,6.35.77,5.51,5.51,0,0,0,3.84-1.49,9.44,9.44,0,0,0,2.23-5l2-9.91-21.71-4.3L277.84,365A9.5,9.5,0,0,0,278,370.5Z"/><path d="M249.56,397.15q2.08-2.92,7.22-3.55t17.08,0q11.94.68,17,1.89t6.78,4.34q1.74,3.12,1.34,10.2c-.27,4.72-1.1,8-2.49,10s-3.8,3.12-7.23,3.54-9.11.41-17.07,0-13.61-1.09-17-1.89-5.61-2.26-6.78-4.34-1.61-5.5-1.33-10.21S248.17,399.09,249.56,397.15Zm2.11,17.49q1.07,2.06,5.38,3a113.11,113.11,0,0,0,15.35,1.58,113.18,113.18,0,0,0,15.45.17c2.92-.3,4.82-1.09,5.68-2.37s1.39-3.67,1.59-7.16-.06-5.91-.77-7.29-2.51-2.36-5.37-3A110.88,110.88,0,0,0,273.61,398a113.52,113.52,0,0,0-15.44-.18q-4.38.45-5.68,2.37c-.86,1.29-1.38,3.67-1.58,7.16S251,413.27,251.67,414.64Z"/><path d="M297.81,438.85l.94,11.71c.37,4.8,0,8.28-1,10.45s-3.23,3.66-6.48,4.54-8.8,1.63-16.6,2.25-13.37.75-16.74.41-5.73-1.52-7.12-3.48-2.28-5.34-2.66-10.15l-.92-11.7ZM251.92,454c.3,3.68.88,6.2,1.76,7.56s2.72,2.16,5.55,2.41a108.24,108.24,0,0,0,15.07-.49,103.36,103.36,0,0,0,14.95-1.93q4.13-1.08,5.11-3.25c.64-1.47.82-4,.54-7.72l-.57-7.05-43,3.41Z"/><path d="M254.46,493.44c.82-2.14,2.61-3.81,5.4-5a81.34,81.34,0,0,1,13.76-3.9l28.19-6.14.94,4.25-30.51,6.65a68.53,68.53,0,0,0-10.16,2.78,6.34,6.34,0,0,0-3.86,3.44c-.56,1.48-.5,3.72.15,6.7s1.53,5,2.64,6.11a6.39,6.39,0,0,0,4.9,1.49,69,69,0,0,0,10.43-1.7l30.51-6.65.92,4.26-28.19,6.14A81.1,81.1,0,0,1,265.43,514c-3,.06-5.36-.72-7-2.32s-2.9-4.51-3.82-8.69S253.64,495.59,254.46,493.44Z"/><path d="M266.8,540.14c.51-2.3,2.32-4.37,5.4-6.19s8.29-4.05,15.61-6.65,12.7-4.14,16.25-4.65,6.27,0,8.13,1.41,3.55,4.24,5,8.36a40.87,40.87,0,0,1,1.21,4.16,18.43,18.43,0,0,1,.53,3.6l-3.4,1.22a35.6,35.6,0,0,0-1.65-6.85q-1.81-5.09-3.88-6.7c-1.37-1.08-3.5-1.34-6.4-.81a105.94,105.94,0,0,0-14.35,4.36,106.29,106.29,0,0,0-13.88,5.69c-2.58,1.41-4.06,3-4.45,4.66s0,4.26,1.23,7.64a31.91,31.91,0,0,0,3.12,6.57l-3.55,1.26a33.41,33.41,0,0,1-1.86-3.48c-.65-1.4-1.2-2.7-1.62-3.9Q266,543.58,266.8,540.14Z"/><path d="M323.21,558.17l-5.06-10.51,3.52-1.69,12,24.86-3.53,1.7-5-10.43-42.21,20.34L281,578.52Z"/><path d="M351.86,600.32l7.12,9.33c2.92,3.84,4.52,6.94,4.8,9.33s-.72,4.84-3,7.34-6.52,6.13-12.74,10.88-10.83,7.88-13.85,9.41-5.64,1.83-7.87.94-4.81-3.26-7.73-7.1l-7.12-9.32Zm-30.38,37.57c2.24,2.94,4.1,4.74,5.56,5.41s3.47.35,6-1a106.51,106.51,0,0,0,12.4-8.58q8.61-6.59,11.52-9.72c1.93-2.09,2.78-3.94,2.53-5.51s-1.48-3.83-3.73-6.77l-4.29-5.63-34.27,26.15Z"/><path d="M377.72,632.32l16.6,16.79-2.73,2.7L378.1,638.17l-13.76,13.59,11.73,11.87-2.72,2.69-11.74-11.86-14.17,14,13.49,13.65-2.73,2.7L341.6,668Z"/><path d="M375.63,700.33a59.12,59.12,0,0,1-4.21-4.25l2.38-3c1.24,1.3,2.61,2.67,4.12,4.13s2.82,2.61,3.9,3.46a22.33,22.33,0,0,0,4,2.69,6.76,6.76,0,0,0,3.34.72,5.09,5.09,0,0,0,3.12-1.43,32.28,32.28,0,0,0,3.72-4.08,45.6,45.6,0,0,0,3.64-5.06,3.38,3.38,0,0,0,.39-2.81,13,13,0,0,0-2.51-3.55l-6.29-6.79a7.84,7.84,0,0,1-2.25-4.42,7.44,7.44,0,0,1,1-4.26,43.18,43.18,0,0,1,3.8-5.42c3.08-3.89,6.1-6,9-6.37s6.25,1,10,3.93c1.61,1.29,3.16,2.64,4.63,4.06a33.2,33.2,0,0,1,3.33,3.59l-2.29,2.89q-1.4-1.58-3.46-3.54c-1.36-1.32-2.68-2.46-3.91-3.45a18.6,18.6,0,0,0-4.47-2.79,6.49,6.49,0,0,0-3.52-.44,7,7,0,0,0-2.86,1.54,23.15,23.15,0,0,0-3,3.29,30.4,30.4,0,0,0-3.05,4.36,3.62,3.62,0,0,0-.44,2.58,8.13,8.13,0,0,0,1.81,2.76l5.84,6.42a15.38,15.38,0,0,1,3.05,4.4,6.36,6.36,0,0,1-.09,4.46,10.94,10.94,0,0,1-1.4,2.7c-.7,1-1.78,2.47-3.21,4.29a26.3,26.3,0,0,1-6.27,6,8.16,8.16,0,0,1-6,1.21,16.78,16.78,0,0,1-7-3.68Q378.16,702.67,375.63,700.33Z"/><path d="M433.06,679.29l3.58,2.35-27.79,42.49-3.58-2.35Z"/><path d="M431,735.87c-1.29-2.11-1.47-5-.56-8.53s3.12-8.72,6.62-15.45,6.38-11.41,8.75-14.2,4.8-4.29,7.29-4.49,5.71.73,9.69,2.79a50.31,50.31,0,0,1,5.18,3.15,40.21,40.21,0,0,1,4.38,3.41l-1.67,3.21c-1.23-1-2.61-2.07-4.12-3.11a40.16,40.16,0,0,0-3.78-2.34c-3.66-1.9-6.41-2.9-8.22-3s-3.7,1-5.66,3.38-4.62,6.73-8,13.19a98.68,98.68,0,0,0-6,13.21q-1.41,4.3-.15,6.78t5.83,4.86a37.13,37.13,0,0,0,3.57,1.61,21.33,21.33,0,0,0,3.35,1.08l8.61-16.57L448.54,721l1.77-3.41,11.27,5.85L449.7,746.26a49.92,49.92,0,0,1-5.62-1.84,47.84,47.84,0,0,1-5.27-2.33Q432.9,739,431,735.87Z"/><path d="M486.34,707.8l4.45,1.56L495,754.42l.28.09,13.67-38.77,4,1.39L496,765l-4.31-1.52-4.18-45.45-.28-.1-13.79,39.12-4-1.39Z"/><path d="M528,721.09l23.12,4.8-.79,3.76-18.79-3.9-3.93,18.93,16.33,3.39-.78,3.76-16.33-3.4-4.06,19.51,18.79,3.91-.78,3.76-23.12-4.81Z"/><path d="M583.21,780.08l-5-21.41-1.48-.11-10.52-.8-1.59,20.9-4.35-.33,3.86-50.63,15.3,1.16c3.39.26,5.86,1.09,7.44,2.49a8.47,8.47,0,0,1,2.82,5.21,37.77,37.77,0,0,1,.1,8,29.76,29.76,0,0,1-1.87,9,7.59,7.59,0,0,1-5.45,4.48l5.34,22.31Zm-1.33-26.23a5.74,5.74,0,0,0,2.54-3.32,30.68,30.68,0,0,0,1-6.26,33.62,33.62,0,0,0,0-6.41,5.46,5.46,0,0,0-1.94-3.62,9.5,9.5,0,0,0-5.26-1.62l-10.07-.76-1.68,22.08,9.94.75A9.46,9.46,0,0,0,581.88,753.85Z"/><path d="M660.24,747.63l.49,3.74-6.3.82,3,23a50.36,50.36,0,0,1-5.3,1.59,54.39,54.39,0,0,1-6,1.15q-6.51.84-10.09-.32a8.65,8.65,0,0,1-5.13-4,22.12,22.12,0,0,1-2.2-7.72c-.5-3.86-.3-6.72.59-8.6a9.34,9.34,0,0,1,4.79-4.39l0-.28a8.81,8.81,0,0,1-5.48-3.17c-1.3-1.66-2.18-4.27-2.66-7.84a18.27,18.27,0,0,1,.31-7.41,9,9,0,0,1,4-5q3.09-2,9.17-2.79a50.79,50.79,0,0,1,5.79-.4c2.16,0,4,0,5.64.16l.45,3.45a57.76,57.76,0,0,0-10.09.2,24.07,24.07,0,0,0-7.89,2,5.55,5.55,0,0,0-3,3.53,17.37,17.37,0,0,0,0,6.21,15,15,0,0,0,2.4,6.91c1.2,1.68,3.42,2.31,6.64,1.89l5.13-.67.49,3.73-5.13.67a9.42,9.42,0,0,0-5.11,1.9,5.64,5.64,0,0,0-1.87,3.66,25.1,25.1,0,0,0,.21,5.89,14,14,0,0,0,2.06,6.36,6.11,6.11,0,0,0,4,2.49,23.08,23.08,0,0,0,6.76-.1,30.41,30.41,0,0,0,7.15-1.68L649.84,749Z"/><path d="M687.61,716.87,701.56,712c3.21-1.1,5.84-1.31,7.87-.6a8.69,8.69,0,0,1,4.78,3.89,41.36,41.36,0,0,1,3.42,7.72,38.83,38.83,0,0,1,2,8.05,9.35,9.35,0,0,1-1.37,6.1q-1.74,2.79-6.48,4.42L702,745l6.35,18.41-4.1,1.43Zm22.08,21.41c2.33-.8,3.89-1.79,4.71-3a5.83,5.83,0,0,0,.89-4.21,37.35,37.35,0,0,0-1.78-6.61,38.11,38.11,0,0,0-2.68-6.3,5.89,5.89,0,0,0-3.3-2.76c-1.38-.43-3.22-.25-5.54.55l-9,3.11,7.71,22.33Z"/><path d="M766.29,738.88,751,723.08l-1.32.66-9.45,4.71,9.35,18.76-3.9,1.94L723,703.69l13.75-6.85c3-1.5,5.59-2.06,7.66-1.66a8.49,8.49,0,0,1,5.09,3,37,37,0,0,1,4.2,6.85,29.27,29.27,0,0,1,3,8.72,7.55,7.55,0,0,1-2.38,6.63l16,16.43ZM751.7,717a5.65,5.65,0,0,0,.49-4.15,30,30,0,0,0-2.35-5.88,32.8,32.8,0,0,0-3.27-5.5,5.47,5.47,0,0,0-3.53-2.13,9.56,9.56,0,0,0-5.34,1.3l-9.05,4.51L738.52,725l8.92-4.44A9.33,9.33,0,0,0,751.7,717Z"/><path d="M788.63,724.28q-3.58.11-7.21-3.59T771.09,707.1c-4.46-6.6-7.41-11.48-8.79-14.64s-1.62-5.82-.68-8,3.39-4.61,7.3-7.27,7.06-4,9.45-4.08,4.78,1.13,7.2,3.59,5.86,7,10.32,13.6,7.41,11.47,8.81,14.63,1.62,5.83.67,8-3.39,4.62-7.3,7.27S791,724.21,788.63,724.28ZM801.24,712c.67-1.39.37-3.43-.87-6.09a112.42,112.42,0,0,0-8.08-13.16,111.26,111.26,0,0,0-9.23-12.37c-2-2.15-3.79-3.17-5.34-3.08s-3.76,1.12-6.65,3.08-4.66,3.64-5.32,5-.36,3.42.88,6.09a111.93,111.93,0,0,0,8.07,13.16A114,114,0,0,0,783.93,717c2,2.14,3.79,3.16,5.34,3.07S793,719,795.92,717,800.58,713.38,801.24,712Z"/><path d="M791.78,661.18l11.22-10q4.68-4.18,8.8-3.5t8.24,5.29a15.94,15.94,0,0,1,4.1,7.24,8.45,8.45,0,0,1-1.74,6.69l.2.23c2.71-1.63,5.18-2,7.43-1.16a18.22,18.22,0,0,1,6.82,5.14q4.14,4.63,4.59,9t-4.87,9.16l-11,9.79Zm25.79,7.92q6.23-5.55-.18-12.71c-2.36-2.64-4.46-4.1-6.31-4.4s-4,.62-6.34,2.75l-7.16,6.4,12.84,14.35Zm16.06,17.63c2.38-2.13,3.52-4.18,3.42-6.13s-1.34-4.28-3.74-7-4.59-4.16-6.59-4.44-4.15.58-6.43,2.62L813,678.36l13.33,14.91Z"/><path d="M820.68,633.88l2.94-3.31,35.1,31L870,648.85l2.93,2.6-14.23,16.08Z"/><path d="M839.41,611.94l13.78-19.18,3.12,2.23-11.2,15.59,15.71,11.28,9.73-13.55,3.12,2.24-9.73,13.55,16.19,11.62,11.19-15.59,3.12,2.24-13.77,19.18Z"/><path d="M859.67,583l2.85-5.51,44.05,8.68.17-.33L874.3,554.75l2.78-5.37,45.09,23.35-2,3.8L882.58,557l-.13.27,31.88,30.56-1.84,3.53-43.28-8.53-.17.33,37.62,19.47-1.89,3.68Z"/><path d="M939.41,525.51q-1.15,3.25-2.23,5.55l-3.7-1q1-2.46,2.14-5.42c.74-2,1.28-3.61,1.64-4.94a24.07,24.07,0,0,0,.88-4.77,7,7,0,0,0-.67-3.36,5.17,5.17,0,0,0-2.55-2.29,33.1,33.1,0,0,0-5.22-1.79,43.74,43.74,0,0,0-6.1-1.34,3.37,3.37,0,0,0-2.73.76,13.29,13.29,0,0,0-2.26,3.71l-3.73,8.47a7.88,7.88,0,0,1-3.16,3.81,7.37,7.37,0,0,1-4.31.79,42.06,42.06,0,0,1-6.48-1.33c-4.81-1.29-7.94-3.21-9.43-5.75s-1.6-6.11-.35-10.73c.54-2,1.16-3.94,1.89-5.87a33.05,33.05,0,0,1,2-4.47l3.56,1c-.6,1.26-1.22,2.79-1.88,4.57s-1.2,3.45-1.61,5a18.62,18.62,0,0,0-.79,5.21,6.52,6.52,0,0,0,1,3.41,6.94,6.94,0,0,0,2.56,2,24.5,24.5,0,0,0,4.22,1.48,30.12,30.12,0,0,0,5.22,1.07,3.57,3.57,0,0,0,2.53-.62,7.83,7.83,0,0,0,1.81-2.75l3.59-7.91a15.35,15.35,0,0,1,2.83-4.55,6.31,6.31,0,0,1,4.12-1.68,10.67,10.67,0,0,1,3,.21c1.24.23,3,.65,5.21,1.25a26.34,26.34,0,0,1,8,3.36,8.2,8.2,0,0,1,3.47,5,16.83,16.83,0,0,1-.6,7.91Q940.54,522.27,939.41,525.51Z"/><path d="M946.78,485.94c-1.54,1.82-4,2.81-7.48,2.95s-9.12-.33-17-1.42-13.5-2.17-16.77-3.24-5.42-2.7-6.4-4.88-1.17-5.59-.52-10.27,1.74-7.93,3.28-9.76,4-2.81,7.48-2.94,9.12.33,17,1.41S939.87,460,943.15,461s5.41,2.7,6.4,4.87,1.17,5.6.52,10.28S948.32,484.12,946.78,485.94Zm-.69-17.61c-.6-1.41-2.31-2.56-5.12-3.42a168.6,168.6,0,0,0-30.56-4.22c-2.94.07-4.89.7-5.85,1.91s-1.68,3.54-2.16,7-.42,5.89.18,7.32,2.31,2.57,5.11,3.42a168.54,168.54,0,0,0,30.57,4.22c2.94-.06,4.88-.7,5.85-1.9s1.67-3.55,2.15-7S946.68,469.76,946.09,468.33Z"/><path d="M901.83,441.71l.08-4.42,46.86.89.32-17.05,3.91.07-.41,21.48Z"/><path d="M902.35,419.16l-.35-4.49,43.38-14.92,0-.37-45.19-7.81-.34-4.34,51.67,9.23.43,5.36Z"/><path d="M898.08,377.27l-4.7-23.14,3.75-.77,3.82,18.8,19-3.85L916.59,352l3.75-.77,3.33,16.35,19.53-4-3.82-18.8,3.76-.76,4.69,23.14Z"/><path d="M931.52,306,913.73,319l.48,1.4,3.33,10,19.88-6.63,1.38,4.13-48.17,16.06-4.85-14.57c-1.08-3.22-1.28-5.83-.59-7.81a8.54,8.54,0,0,1,3.72-4.63,36.56,36.56,0,0,1,7.37-3.19,29.67,29.67,0,0,1,9.05-1.78,7.56,7.56,0,0,1,6.24,3.3l18.51-13.56Zm-23.66,11.39a5.73,5.73,0,0,0-4.06-1.07,30.22,30.22,0,0,0-6.14,1.51,32.1,32.1,0,0,0-5.91,2.47,5.5,5.5,0,0,0-2.59,3.2,9.44,9.44,0,0,0,.53,5.46l3.21,9.59,21-7-3.15-9.46A9.35,9.35,0,0,0,907.86,317.42Z"/></g></svg>